<svg width="16" height="16" viewBox="0 0 16 16" fill="none" xmlns="http://www.w3.org/2000/svg">
<path d="M8.82241 0.000984266C9.40617 -0.0012558 9.98993 0.00461119 10.5735 0.0185834L10.7287 0.0241831C10.9079 0.0305828 11.0847 0.0385823 11.2983 0.0481819C12.1494 0.0881798 12.7302 0.222573 13.2398 0.420163C13.7678 0.623352 14.2125 0.898538 14.6573 1.34332C15.064 1.74298 15.3787 2.22643 15.5797 2.76004C15.7773 3.26962 15.9116 3.85119 15.9516 4.70234C15.9612 4.91513 15.9692 5.09272 15.9756 5.27191L15.9804 5.42711C15.9947 6.01043 16.0008 6.59392 15.9988 7.17742L15.9996 7.77419V8.82213C16.0016 9.40589 15.9955 9.98965 15.9812 10.5732L15.9764 10.7284C15.97 10.9076 15.962 11.0844 15.9524 11.298C15.9124 12.1492 15.7765 12.7299 15.5797 13.2395C15.3794 13.7737 15.0646 14.2575 14.6573 14.657C14.2573 15.0637 13.7736 15.3784 13.2398 15.5794C12.7302 15.777 12.1494 15.9114 11.2983 15.9514C11.0847 15.961 10.9079 15.969 10.7287 15.9754L10.5735 15.9802C9.98993 15.9944 9.40617 16.0005 8.82241 15.9986L8.22564 15.9994H7.17849C6.59473 16.0013 6.01097 15.9952 5.42738 15.981L5.27219 15.9762C5.08229 15.9693 4.89243 15.9613 4.70262 15.9522C3.85146 15.9122 3.27069 15.7762 2.76032 15.5794C2.22649 15.3789 1.74296 15.0641 1.34359 14.657C0.93645 14.2573 0.621409 13.7735 0.42044 13.2395C0.22285 12.7299 0.088457 12.1492 0.0484591 11.298C0.0395499 11.1082 0.0315502 10.9183 0.0244603 10.7284L0.0204606 10.5732C0.00571225 9.98966 -0.000954789 9.4059 0.000461577 8.82213V7.17742C-0.00177108 6.59393 0.00409591 6.01043 0.0180607 5.42711L0.0236604 5.27191C0.0300601 5.09272 0.0380597 4.91513 0.0476592 4.70234C0.0876571 3.85039 0.22205 3.27042 0.41964 2.76004C0.620728 2.22617 0.936385 1.74285 1.34439 1.34412C1.74349 0.936738 2.22672 0.621411 2.76032 0.420163C3.27069 0.222573 3.85066 0.0881798 4.70262 0.0481819L5.27219 0.0241831L5.42738 0.0201834C6.0107 0.00544242 6.59419 -0.00122462 7.17769 0.000184365L8.82241 0.000984266ZM8.00005 3.99998C6.93924 3.99998 5.92188 4.42138 5.17177 5.17149C4.42166 5.9216 4.00026 6.93896 4.00026 7.99977C4.00026 9.06059 4.42166 10.0779 5.17177 10.8281C5.92188 11.5782 6.93924 11.9996 8.00005 11.9996C9.06086 11.9996 10.0782 11.5782 10.8283 10.8281C11.5784 10.0779 11.9998 9.06059 11.9998 7.99977C11.9998 6.93896 11.5784 5.9216 10.8283 5.17149C10.0782 4.42138 9.06086 3.99998 8.00005 3.99998ZM8.00005 5.5999C8.31521 5.59984 8.62729 5.66187 8.91847 5.78242C9.20966 5.90298 9.47425 6.07971 9.69714 6.30252C9.92002 6.52533 10.0968 6.78987 10.2175 7.08101C10.3381 7.37216 10.4003 7.68422 10.4003 7.99937C10.4004 8.31453 10.3384 8.62661 10.2178 8.9178C10.0972 9.20898 9.92052 9.47357 9.6977 9.69646C9.47489 9.91935 9.21036 10.0962 8.91921 10.2168C8.62807 10.3375 8.31601 10.3996 8.00085 10.3997C7.36436 10.3997 6.75395 10.1468 6.30388 9.69674C5.85382 9.24668 5.60097 8.63626 5.60097 7.99977C5.60097 7.36329 5.85382 6.75287 6.30388 6.3028C6.75395 5.85274 7.36436 5.5999 8.00085 5.5999M12.2006 2.80004C11.9426 2.81037 11.6985 2.92015 11.5196 3.1064C11.3406 3.29265 11.2407 3.54091 11.2407 3.79919C11.2407 4.05747 11.3406 4.30573 11.5196 4.49198C11.6985 4.67822 11.9426 4.78801 12.2006 4.79834C12.4658 4.79834 12.7202 4.69299 12.9077 4.50546C13.0952 4.31793 13.2006 4.06359 13.2006 3.79839C13.2006 3.53319 13.0952 3.27885 12.9077 3.09132C12.7202 2.90379 12.4658 2.79844 12.2006 2.79844" fill="#EBEBF5"/>
</svg>
