<svg width="128" height="128" viewBox="0 0 128 128" fill="none" xmlns="http://www.w3.org/2000/svg">
<path d="M42.9456 4.46961H80.3367L41.522 119.474C41.1234 120.656 40.3639 121.683 39.3506 122.411C38.3372 123.138 37.1211 123.53 35.8736 123.529H6.77494C5.82989 123.529 4.89846 123.304 4.05758 122.873C3.2167 122.441 2.49049 121.816 1.93895 121.049C1.38757 120.281 1.02694 119.394 0.88694 118.459C0.746938 117.524 0.831585 116.57 1.13387 115.674L37.2972 8.52442C37.696 7.34234 38.4555 6.31512 39.4688 5.58739C40.482 4.85966 41.6981 4.46808 42.9456 4.46777V4.46961Z" fill="url(#paint0_linear_1155_4791)"/>
<path d="M97.2796 81.6074H37.9866C37.4352 81.6064 36.8964 81.7715 36.4402 82.0812C35.9841 82.391 35.6319 82.831 35.4296 83.3439C35.2273 83.8568 35.1843 84.4188 35.3061 84.9565C35.4279 85.4943 35.709 85.9828 36.1126 86.3584L74.2126 121.92C75.322 122.955 76.7826 123.531 78.2996 123.53H111.874L97.2796 81.6074Z" fill="#0078D4"/>
<path d="M42.9458 4.46977C41.6847 4.46503 40.4551 4.86363 39.4366 5.60734C38.4181 6.35105 37.664 7.40092 37.2846 8.60361L1.17916 115.577C0.856831 116.476 0.755668 117.439 0.884225 118.385C1.01278 119.331 1.36728 120.232 1.91773 121.012C2.46818 121.792 3.19839 122.428 4.04661 122.866C4.89483 123.305 5.8361 123.532 6.79082 123.53H36.6412C37.7529 123.331 38.792 122.841 39.6523 122.109C40.5126 121.378 41.1633 120.431 41.5379 119.365L48.7376 98.1457L74.457 122.134C75.5345 123.025 76.8863 123.518 78.2848 123.53H111.734L97.0635 81.6066L54.2978 81.6167L80.4721 4.46977H42.9458Z" fill="url(#paint1_linear_1155_4791)"/>
<path d="M90.7038 8.51902C90.3056 7.3386 89.547 6.31289 88.535 5.58643C87.523 4.85997 86.3085 4.46939 85.0627 4.46973H43.3916C44.6371 4.46986 45.8513 4.86064 46.8631 5.58705C47.8749 6.31345 48.6334 7.3389 49.0318 8.51902L85.196 115.674C85.4987 116.569 85.5838 117.524 85.4441 118.459C85.3045 119.394 84.9441 120.282 84.3928 121.05C83.8416 121.818 83.1153 122.444 82.2742 122.875C81.433 123.307 80.5012 123.532 79.5558 123.531H121.229C122.174 123.531 123.105 123.305 123.946 122.873C124.786 122.442 125.512 121.816 126.063 121.048C126.614 120.281 126.974 119.393 127.114 118.458C127.254 117.524 127.17 116.569 126.868 115.674L90.7038 8.51902Z" fill="url(#paint2_linear_1155_4791)"/>
<defs>
<linearGradient id="paint0_linear_1155_4791" x1="56.574" y1="13.2924" x2="17.7428" y2="128.008" gradientUnits="userSpaceOnUse">
<stop stopColor="#114A8B"/>
<stop offset="1" stopColor="#0669BC"/>
</linearGradient>
<linearGradient id="paint1_linear_1155_4791" x1="68.7038" y1="66.7531" x2="59.722" y2="69.7896" gradientUnits="userSpaceOnUse">
<stop stop-opacity="0.3"/>
<stop offset="0.071" stop-opacity="0.2"/>
<stop offset="0.321" stop-opacity="0.1"/>
<stop offset="0.623" stop-opacity="0.05"/>
<stop offset="1" stop-opacity="0"/>
</linearGradient>
<linearGradient id="paint2_linear_1155_4791" x1="63.764" y1="9.94629" x2="106.389" y2="123.507" gradientUnits="userSpaceOnUse">
<stop stopColor="#3CCBF4"/>
<stop offset="1" stopColor="#2892DF"/>
</linearGradient>
</defs>
</svg>
