<svg width="128" height="128" viewBox="0 0 128 128" fill="none" xmlns="http://www.w3.org/2000/svg">
<path d="M64.144 56.7891C59.168 56.7891 55.581 60.0341 55.581 64.9011C55.581 69.7681 59.615 73.0141 64.595 73.0141C67.601 73.0141 70.251 71.8241 71.892 69.8191L68.444 67.8271C67.534 68.8231 66.15 69.4041 64.595 69.4041C62.436 69.4041 60.602 68.2771 59.921 66.4741H72.55C72.6538 65.9548 72.7067 65.4267 72.708 64.8971C72.708 60.0341 69.125 56.7891 64.144 56.7891ZM59.885 63.3241C60.448 61.5261 61.99 60.3941 64.145 60.3941C66.303 60.3941 67.845 61.5261 68.404 63.3241H59.885ZM58.866 51.8311L46.377 73.4651L33.884 51.8301H38.567L46.373 65.3511L54.179 51.8301L58.866 51.8311ZM16.654 49.5781L33.307 78.4231H0L16.654 49.5781ZM90.826 64.9021C90.826 67.6061 92.593 69.4091 95.333 69.4091C97.19 69.4091 98.583 68.5661 99.299 67.1911L102.761 69.1881C101.327 71.5761 98.641 73.0141 95.333 73.0141C90.353 73.0141 86.77 69.7691 86.77 64.9021C86.77 60.0341 90.357 56.7891 95.333 56.7891C98.641 56.7891 101.323 58.2271 102.761 60.6151L99.299 62.6121C98.583 61.2371 97.19 60.3941 95.333 60.3941C92.597 60.3941 90.826 62.1971 90.826 64.9021ZM128 51.8301V72.5621H123.944V51.8311L128 51.8301ZM112.676 56.7881C107.7 56.7881 104.113 60.0331 104.113 64.9001C104.113 69.7671 108.151 73.0131 113.127 73.0131C116.133 73.0131 118.783 71.8231 120.424 69.8181L116.976 67.8261C116.066 68.8221 114.682 69.4031 113.126 69.4031C110.968 69.4031 109.134 68.2761 108.453 66.4731H121.082C121.185 65.9538 121.238 65.4256 121.239 64.8961C121.239 60.0331 117.656 56.7881 112.676 56.7881ZM108.416 63.3231C108.98 61.5251 110.517 60.3931 112.676 60.3931C114.835 60.3931 116.376 61.5251 116.936 63.3231H108.416ZM85.417 57.2381V61.6061C84.9492 61.4645 84.4637 61.3901 83.975 61.3851C81.357 61.3851 79.468 63.1881 79.468 65.8921V72.5621H75.412V57.2401H79.468V61.3871C79.468 59.0971 82.132 57.2401 85.418 57.2401L85.417 57.2381Z" fill="white"/>
</svg>
