<svg width="128" height="128" viewBox="0 0 128 128" fill="blue" xmlns="http://www.w3.org/2000/svg">
<path d="M1.4082 1.4082H126.592V126.593H1.4082V1.4082Z" fill="#F0DB4F"/>
<path d="M116.347 96.7359C115.43 91.0249 111.706 86.2279 100.675 81.7549C96.8426 79.9939 92.5706 78.7329 91.2976 75.8289C90.8456 74.1389 90.7856 73.1869 91.0716 72.1639C91.8926 68.8439 95.8556 67.8089 98.9966 68.7609C101.02 69.4389 102.935 70.9979 104.09 73.4849C109.492 69.9869 109.481 70.0099 113.253 67.6059C111.872 65.4649 111.135 64.4769 110.231 63.5609C106.982 59.9319 102.555 58.0629 95.4746 58.2059L91.7866 58.6829C88.2526 59.5759 84.8846 61.4309 82.9096 63.9179C76.9836 70.6419 78.6736 82.4099 85.8846 87.2529C92.9886 92.5849 103.425 93.7979 104.758 98.7839C106.055 104.888 100.272 106.864 94.5236 106.162C90.2876 105.281 87.9316 103.128 85.3846 99.2129C80.6966 101.926 80.6966 101.926 75.8766 104.698C77.0196 107.197 78.2206 108.328 80.1366 110.493C89.2046 119.691 111.897 119.239 115.967 105.317C116.132 104.839 117.228 101.651 116.347 96.7359ZM69.4616 58.9429H57.7526L57.7046 89.2149C57.7046 95.6529 58.0376 101.555 56.9906 103.364C55.2776 106.922 50.8386 106.481 48.8156 105.791C46.7566 104.779 45.7096 103.34 44.4966 101.306C44.1636 100.722 43.9136 100.27 43.8296 100.235L34.3096 106.065C35.8926 109.314 38.2246 112.134 41.2116 113.966C45.6736 116.644 51.6706 117.465 57.9426 116.025C62.0246 114.836 65.5466 112.373 67.3906 108.624C70.0566 103.709 69.4846 97.7599 69.4606 91.1799C69.5206 80.4449 69.4616 69.7119 69.4616 58.9429Z" fill="#323330"/>
</svg>
