<svg width="512" height="314" viewBox="0 0 512 314" fill="none" xmlns="http://www.w3.org/2000/svg">
<g clipPath="url(#clip0_1155_4755)">
<path d="M253.11 313.095C251.377 313.095 249.759 312.633 248.256 311.824L232.885 302.694C230.573 301.422 231.729 300.96 232.423 300.729C235.543 299.689 236.121 299.457 239.357 297.609C239.704 297.377 240.167 297.493 240.513 297.724L252.302 304.774C252.764 305.005 253.342 305.005 253.688 304.774L299.803 278.076C300.265 277.845 300.497 277.382 300.497 276.805V223.525C300.497 222.946 300.265 222.485 299.803 222.253L253.688 195.671C253.226 195.439 252.648 195.439 252.302 195.671L206.187 222.253C205.725 222.484 205.493 223.062 205.493 223.524V276.804C205.493 277.267 205.725 277.844 206.187 278.076L218.785 285.357C225.604 288.824 229.88 284.779 229.88 280.734V228.147C229.88 227.454 230.458 226.76 231.267 226.76H237.161C237.855 226.76 238.548 227.338 238.548 228.147V280.734C238.548 289.864 233.578 295.181 224.91 295.181C222.252 295.181 220.172 295.181 214.277 292.291L202.142 285.357C199.137 283.624 197.288 280.387 197.288 276.92V223.64C197.288 220.173 199.137 216.936 202.142 215.203L248.256 188.505C251.146 186.887 255.076 186.887 257.965 188.505L304.079 215.203C307.084 216.936 308.934 220.173 308.934 223.64V276.92C308.934 280.387 307.084 283.624 304.079 285.357L257.965 312.055C256.462 312.749 254.728 313.095 253.11 313.095ZM267.327 276.458C247.102 276.458 242.941 267.212 242.941 259.353C242.941 258.659 243.519 257.966 244.328 257.966H250.338C251.031 257.966 251.609 258.428 251.609 259.122C252.534 265.247 255.192 268.252 267.443 268.252C277.151 268.252 281.313 266.056 281.313 260.855C281.313 257.85 280.156 255.655 265.016 254.152C252.418 252.88 244.559 250.107 244.559 240.052C244.559 230.69 252.419 225.142 265.594 225.142C280.387 225.142 287.669 230.228 288.594 241.322C288.594 241.67 288.478 242.016 288.247 242.363C288.015 242.594 287.669 242.825 287.322 242.825H281.312C280.734 242.825 280.156 242.363 280.041 241.785C278.654 235.429 275.071 233.348 265.594 233.348C254.961 233.348 253.689 237.047 253.689 239.82C253.689 243.172 255.192 244.212 269.523 246.061C283.739 247.911 290.443 250.569 290.443 260.508C290.327 270.679 282.006 276.458 267.327 276.458Z" fill="#539E43"/>
<path d="M110.028 104.712C110.028 102.632 108.872 100.666 107.023 99.6263L58.0194 71.4263C57.2094 70.9633 56.2854 70.7322 55.3614 70.6162H54.8984C53.9744 70.6162 53.0494 70.9633 52.2404 71.4263L3.23645 99.6263C1.38645 100.666 0.231445 102.631 0.231445 104.712L0.347445 180.529C0.347445 181.569 0.925445 182.609 1.84945 183.072C2.77445 183.65 3.92945 183.65 4.73945 183.072L33.8644 166.429C35.7134 165.389 36.8694 163.424 36.8694 161.344V125.862C36.8694 123.782 38.0244 121.817 39.8744 120.777L52.2404 113.611C53.1654 113.033 54.2054 112.801 55.2454 112.801C56.2854 112.801 57.3254 113.033 58.1354 113.611L70.5014 120.777C72.3514 121.817 73.5064 123.781 73.5064 125.862V161.344C73.5064 163.424 74.6624 165.389 76.5114 166.429L105.636 183.072C106.086 183.356 106.607 183.506 107.139 183.506C107.671 183.506 108.191 183.356 108.641 183.072C109.566 182.609 110.144 181.569 110.144 180.529L110.028 104.712ZM345.571 0.34725C344.647 -0.11575 343.491 -0.11575 342.681 0.34725C341.757 0.92525 341.179 1.84925 341.179 2.88925V78.0143C341.179 78.7073 340.833 79.4003 340.139 79.8633C339.446 80.2093 338.752 80.2093 338.059 79.8633L325.808 72.8133C324.91 72.3019 323.895 72.0329 322.861 72.0329C321.827 72.0329 320.812 72.3019 319.913 72.8133L270.909 101.129C269.06 102.169 267.904 104.134 267.904 106.214V162.73C267.904 164.81 269.06 166.776 270.909 167.816L319.913 196.132C320.812 196.644 321.827 196.913 322.861 196.913C323.895 196.913 324.91 196.644 325.808 196.132L374.812 167.816C376.661 166.776 377.817 164.811 377.817 162.73V21.8442C377.817 19.6482 376.661 17.6842 374.812 16.6432L345.571 0.34725ZM341.064 144.123C341.064 144.701 340.833 145.163 340.37 145.394L323.612 155.102C323.378 155.216 323.121 155.276 322.861 155.276C322.601 155.276 322.344 155.216 322.109 155.102L305.351 145.394C304.888 145.163 304.657 144.585 304.657 144.123V124.706C304.657 124.128 304.888 123.666 305.351 123.435L322.109 113.726C322.344 113.612 322.601 113.553 322.861 113.553C323.121 113.553 323.378 113.612 323.612 113.726L340.37 123.435C340.833 123.665 341.064 124.244 341.064 124.706V144.123ZM508.648 124.244C510.498 123.204 511.538 121.239 511.538 119.158V105.405C511.538 103.325 510.382 101.36 508.648 100.32L459.991 72.1203C459.093 71.6089 458.078 71.3399 457.044 71.3399C456.01 71.3399 454.995 71.6089 454.096 72.1203L405.092 100.435C403.242 101.475 402.087 103.44 402.087 105.52V162.037C402.087 164.117 403.243 166.082 405.092 167.122L453.749 194.86C455.599 195.9 457.795 195.9 459.529 194.86L489 178.45C489.925 177.987 490.503 176.947 490.503 175.907C490.503 174.867 489.925 173.827 489 173.364L439.765 145.048C438.84 144.47 438.262 143.546 438.262 142.506V124.823C438.262 123.783 438.84 122.743 439.765 122.28L455.136 113.496C455.586 113.213 456.107 113.063 456.639 113.063C457.171 113.063 457.691 113.213 458.141 113.496L473.513 122.28C474.438 122.858 475.015 123.782 475.015 124.823V138.692C475.015 139.732 475.593 140.772 476.518 141.234C476.968 141.518 477.489 141.668 478.021 141.668C478.553 141.668 479.074 141.518 479.523 141.234L508.648 124.244Z" fill="#333333"/>
<path d="M456.293 121.586C456.464 121.472 456.665 121.412 456.871 121.412C457.076 121.412 457.277 121.472 457.449 121.586L466.811 127.018C467.157 127.25 467.388 127.596 467.388 128.058V138.923C467.388 139.385 467.158 139.732 466.811 139.963L457.449 145.395C457.277 145.508 457.076 145.568 456.871 145.568C456.665 145.568 456.464 145.508 456.293 145.395L446.932 139.963C446.585 139.732 446.354 139.385 446.354 138.923V128.059C446.354 127.596 446.584 127.249 446.932 127.019L456.293 121.586Z" fill="#539E43"/>
<path d="M191.971 72.3513C191.073 71.8401 190.058 71.5713 189.024 71.5713C187.991 71.5713 186.975 71.8401 186.077 72.3513L137.42 100.434C135.57 101.474 134.53 103.439 134.53 105.519V161.805C134.53 163.885 135.686 165.85 137.42 166.89L186.077 194.975C186.975 195.487 187.991 195.755 189.024 195.755C190.058 195.755 191.073 195.487 191.971 194.975L240.629 166.89C242.478 165.85 243.519 163.885 243.519 161.805V105.52C243.519 103.44 242.362 101.475 240.629 100.435L191.971 72.3513Z" fill="url(#paint0_linear_1155_4755)"/>
<mask id="mask0_1155_4755" style="mask-type:luminance" maskUnits="userSpaceOnUse" x="134" y="71" width="110" height="125">
<path d="M191.971 72.3513C191.073 71.8401 190.058 71.5713 189.024 71.5713C187.991 71.5713 186.975 71.8401 186.077 72.3513L137.42 100.434C135.57 101.474 134.53 103.439 134.53 105.519V161.805C134.53 163.885 135.686 165.85 137.42 166.89L186.077 194.975C186.975 195.487 187.991 195.755 189.024 195.755C190.058 195.755 191.073 195.487 191.971 194.975L240.629 166.89C242.478 165.85 243.519 163.885 243.519 161.805V105.52C243.519 103.44 242.362 101.475 240.629 100.435L191.971 72.3513Z" fill="white"/>
</mask>
<g mask="url(#mask0_1155_4755)">
<path d="M240.744 100.434L191.856 72.3505C191.376 72.1079 190.872 71.9142 190.353 71.7725L135.57 165.62C136.024 166.175 136.572 166.644 137.189 167.007L186.077 195.092C187.464 195.901 189.082 196.132 190.584 195.669L242.016 101.591C241.669 101.129 241.206 100.78 240.744 100.434Z" fill="url(#paint1_linear_1155_4755)"/>
</g>
<mask id="mask1_1155_4755" style="mask-type:luminance" maskUnits="userSpaceOnUse" x="134" y="71" width="110" height="125">
<path d="M191.971 72.3513C191.073 71.8401 190.058 71.5713 189.024 71.5713C187.991 71.5713 186.975 71.8401 186.077 72.3513L137.42 100.434C135.57 101.474 134.53 103.439 134.53 105.519V161.805C134.53 163.885 135.686 165.85 137.42 166.89L186.077 194.975C186.975 195.487 187.991 195.755 189.024 195.755C190.058 195.755 191.073 195.487 191.971 194.975L240.629 166.89C242.478 165.85 243.519 163.885 243.519 161.805V105.52C243.519 103.44 242.362 101.475 240.629 100.435L191.971 72.3513Z" fill="white"/>
</mask>
<g mask="url(#mask1_1155_4755)">
<path fillRule="evenodd" clipRule="evenodd" d="M240.86 166.892C242.247 166.083 243.287 164.696 243.75 163.194L190.121 71.6579C188.734 71.4269 187.231 71.5419 185.961 72.3509L137.419 100.321L189.774 195.786C190.535 195.661 191.275 195.428 191.97 195.093L240.86 166.892Z" fill="url(#paint2_linear_1155_4755)"/>
<path fillRule="evenodd" clipRule="evenodd" d="M240.861 166.891L192.088 194.976C191.399 195.327 190.657 195.561 189.892 195.669L190.817 197.403L244.906 166.083V165.389L243.519 163.077C243.288 164.695 242.248 166.082 240.861 166.891Z" fill="url(#paint3_linear_1155_4755)"/>
<path fillRule="evenodd" clipRule="evenodd" d="M240.861 166.891L192.088 194.976C191.399 195.327 190.657 195.561 189.892 195.669L190.817 197.403L244.906 166.083V165.389L243.519 163.077C243.288 164.695 242.248 166.082 240.861 166.891Z" fill="url(#paint4_linear_1155_4755)"/>
</g>
</g>
<defs>
<linearGradient id="paint0_linear_1155_4755" x1="7566.27" y1="2243.18" x2="2232.99" y2="10623.3" gradientUnits="userSpaceOnUse">
<stop stopColor="#41873F"/>
<stop offset="0.3288" stopColor="#418B3D"/>
<stop offset="0.6352" stopColor="#419637"/>
<stop offset="0.9319" stopColor="#3FA92D"/>
<stop offset="1" stopColor="#3FAE2A"/>
</linearGradient>
<linearGradient id="paint1_linear_1155_4755" x1="4742.23" y1="6920.07" x2="18099.2" y2="-336.806" gradientUnits="userSpaceOnUse">
<stop offset="0.1376" stopColor="#41873F"/>
<stop offset="0.4032" stopColor="#54A044"/>
<stop offset="0.7136" stopColor="#66B848"/>
<stop offset="0.9081" stopColor="#6CC04A"/>
</linearGradient>
<linearGradient id="paint2_linear_1155_4755" x1="-329.268" y1="6282.84" x2="10929.9" y2="6282.84" gradientUnits="userSpaceOnUse">
<stop offset="0.09192" stopColor="#6CC04A"/>
<stop offset="0.2864" stopColor="#66B848"/>
<stop offset="0.5968" stopColor="#54A044"/>
<stop offset="0.8624" stopColor="#41873F"/>
</linearGradient>
<linearGradient id="paint3_linear_1155_4755" x1="-5523.92" y1="1888.82" x2="5735.14" y2="1888.82" gradientUnits="userSpaceOnUse">
<stop offset="0.09192" stopColor="#6CC04A"/>
<stop offset="0.2864" stopColor="#66B848"/>
<stop offset="0.5968" stopColor="#54A044"/>
<stop offset="0.8624" stopColor="#41873F"/>
</linearGradient>
<linearGradient id="paint4_linear_1155_4755" x1="7375.43" y1="-7082.08" x2="4523.08" y2="7864.2" gradientUnits="userSpaceOnUse">
<stop stopColor="#41873F"/>
<stop offset="0.3288" stopColor="#418B3D"/>
<stop offset="0.6352" stopColor="#419637"/>
<stop offset="0.9319" stopColor="#3FA92D"/>
<stop offset="1" stopColor="#3FAE2A"/>
</linearGradient>
<clipPath id="clip0_1155_4755">
<rect width="512" height="314" fill="white"/>
</clipPath>
</defs>
</svg>
