<svg width="256" height="257" viewBox="0 0 256 257" fill="none" xmlns="http://www.w3.org/2000/svg">
<g clipPath="url(#clip0_1155_4740)">
<path d="M147.386 69.071L147.129 0H108.614L108.871 69.071L128.128 95.519L147.386 69.071ZM108.871 187.442V256.77H147.386V187.442L128.128 160.995L108.871 187.442Z" fill="white"/>
<path d="M147.386 187.442L187.956 243.418L219.025 220.822L178.455 164.847L147.386 154.832V187.442ZM108.871 69.0707L68.0436 13.0947L36.9746 35.6907L77.5446 91.6667L108.871 101.681V69.0707Z" fill="#00F2E6"/>
<path d="M77.545 91.6675L11.811 70.3555L0 106.816L65.733 128.385L96.802 118.114L77.545 91.6675ZM159.198 138.399L178.455 164.847L244.189 186.158L256 149.697L190.267 128.385L159.198 138.399Z" fill="#00B9F1"/>
<path d="M190.267 128.385L256 106.816L244.189 70.3555L178.455 91.6675L159.198 118.114L190.267 128.385ZM65.733 128.385L0 149.697L11.811 186.158L77.545 164.847L96.802 138.399L65.733 128.385Z" fill="#D63AFF"/>
<path d="M77.5446 164.847L36.9746 220.822L68.0436 243.418L108.871 187.442V154.832L77.5446 164.847ZM178.455 91.6667L219.025 35.6907L187.956 13.0947L147.386 69.0707V101.681L178.455 91.6667Z" fill="#FB015B"/>
</g>
<defs>
<clipPath id="clip0_1155_4740">
<rect width="256" height="257" fill="white"/>
</clipPath>
</defs>
</svg>
