<svg width="72" height="64" viewBox="0 0 72 64" fill="none" xmlns="http://www.w3.org/2000/svg">
<g clipPath="url(#clip0_1155_4711)">
<path d="M59.1983 20.7225C58.4321 20.4601 57.6594 20.217 56.8808 19.9935C57.0116 19.4602 57.132 18.9333 57.2389 18.4157C58.9933 9.91574 57.8464 3.06802 53.9288 0.813425C50.1727 -1.34798 44.03 0.905776 37.8262 6.29441C37.2147 6.82643 36.6169 7.37379 36.0332 7.93595C35.6424 7.56213 35.2448 7.19556 34.8404 6.83644C28.3385 1.07476 21.8213 -1.35359 17.908 0.90746C14.1553 3.0756 13.0441 9.51293 14.6236 17.5685C14.7807 18.3663 14.9582 19.16 15.1557 19.9489C14.2332 20.2105 13.3431 20.4889 12.4912 20.7854C4.86816 23.438 0 27.5949 0 31.9068C0 36.3601 5.22619 40.8269 13.1659 43.5354C13.8096 43.7541 14.4586 43.9567 15.1124 44.1431C14.9001 44.9927 14.7116 45.8481 14.5471 46.7082C13.0413 54.624 14.2172 60.9091 17.9598 63.0635C21.8253 65.2884 28.3132 63.0018 34.6303 57.4902C35.1426 57.0421 35.6435 56.5813 36.1328 56.1083C36.7649 56.717 37.4139 57.308 38.079 57.8807C44.1984 63.136 50.2419 65.2581 53.9809 63.0978C57.8427 60.8665 59.0979 54.1145 57.4684 45.8997C57.34 45.2562 57.1961 44.6158 57.0367 43.9792C57.4923 43.8444 57.9395 43.7058 58.3754 43.5615C66.6295 40.8322 72 36.4196 72 31.9068C72 27.5792 66.9746 23.3942 59.1983 20.7225ZM57.4082 40.6478C57.0144 40.7778 56.6106 40.9033 56.1988 41.0254C55.2876 38.1462 54.0579 35.0849 52.553 31.9216C53.989 28.8339 55.1714 25.8116 56.0571 22.9512C56.7937 23.164 57.5083 23.3883 58.1974 23.6249C64.8602 25.9143 68.9242 29.2988 68.9242 31.9068C68.9242 34.6846 64.5351 38.2908 57.4082 40.6478ZM54.4511 46.496C55.1717 50.1282 55.2743 53.4124 54.7971 55.98C54.3684 58.2871 53.5061 59.8251 52.4396 60.4412C50.1708 61.7521 45.3184 60.0482 40.0852 55.5536C39.4665 55.0212 38.8628 54.4718 38.2747 53.9059C40.3037 51.6915 42.3312 49.1171 44.3101 46.2579C47.7908 45.9497 51.0792 45.4456 54.0613 44.7576C54.205 45.3339 54.3349 45.9135 54.4511 46.496ZM24.5464 60.2147C22.3296 60.9959 20.5639 61.0183 19.4965 60.4042C17.2254 59.0969 16.2813 54.0502 17.5691 47.2808C17.7222 46.4809 17.8975 45.6853 18.0948 44.8951C21.044 45.5463 24.3084 46.0145 27.7973 46.2969C29.7897 49.0947 31.8757 51.6662 33.9781 53.918C33.5313 54.3495 33.074 54.7699 32.6064 55.1789C29.8128 57.616 27.0135 59.3451 24.5464 60.2147ZM14.1609 40.6307C10.6501 39.4329 7.75069 37.8764 5.76338 36.1779C3.97744 34.6517 3.07603 33.1362 3.07603 31.9068C3.07603 29.2901 6.98456 25.9525 13.5037 23.6842C14.2948 23.4091 15.1228 23.1494 15.982 22.9058C16.8832 25.8307 18.065 28.8889 19.4912 31.9814C18.0464 35.1197 16.8477 38.2268 15.9379 41.1862C15.3411 41.0156 14.7486 40.8304 14.1609 40.6307ZM17.6423 16.9788C16.2892 10.0771 17.1877 4.87097 19.4493 3.5643C21.8579 2.17258 27.1842 4.15686 32.7982 9.13202C33.1643 9.45718 33.5245 9.78893 33.8785 10.1271C31.7866 12.3691 29.7197 14.9215 27.745 17.7027C24.3588 18.016 21.1174 18.519 18.1372 19.1929C17.9536 18.4592 17.7886 17.7208 17.6423 16.9788ZM48.6998 24.6332C47.9959 23.4197 47.2659 22.2215 46.5103 21.0394C48.8076 21.3294 51.0086 21.7142 53.0755 22.1847C52.4551 24.1698 51.6817 26.245 50.7713 28.3727C50.1058 27.1126 49.4152 25.8658 48.6998 24.6332ZM36.0346 12.3214C37.4532 13.8554 38.8741 15.568 40.2716 17.4262C37.4366 17.2926 34.5969 17.292 31.7618 17.4245C33.1608 15.5834 34.5938 13.8731 36.0346 12.3214ZM23.2881 24.654C22.5817 25.8767 21.9039 27.1157 21.2555 28.3699C20.36 26.2498 19.5936 24.165 18.9678 22.1518C21.022 21.6931 23.2127 21.3181 25.4953 21.0335C24.7313 22.2228 23.9953 23.4302 23.2881 24.654ZM25.5608 42.9984C23.2026 42.7357 20.979 42.38 18.9253 41.9337C19.5609 39.8846 20.3442 37.7555 21.2591 35.5898C21.9102 36.845 22.5907 38.0848 23.3002 39.308C24.0297 40.5656 24.7852 41.7973 25.5608 42.9984ZM36.1195 51.7086C34.6615 50.1389 33.2075 48.4022 31.7874 46.5344C33.1661 46.5883 34.5715 46.6158 36 46.6158C37.4676 46.6158 38.9183 46.583 40.3462 46.5195C38.9441 48.421 37.5286 50.1602 36.1195 51.7086ZM50.8002 35.4792C51.7627 37.6687 52.5738 39.7866 53.2178 41.8007C51.1304 42.2762 48.8765 42.659 46.5016 42.9434C47.2626 41.7393 47.9995 40.5203 48.7119 39.287C49.4363 38.0334 50.1325 36.7638 50.8002 35.4792ZM46.0477 37.7532C44.957 39.6441 43.8051 41.4991 42.5936 43.3153C40.3992 43.4704 38.1999 43.5475 36 43.5463C33.7593 43.5463 31.5799 43.4767 29.4812 43.3409C28.2381 41.5289 27.0642 39.6706 25.9619 37.7701C24.8648 35.8796 23.8403 33.9482 22.8901 31.98C23.8379 30.0114 24.8596 28.0791 25.9529 26.1872L25.9526 26.1875C27.0456 24.295 28.2101 22.4447 29.4438 20.6405C31.5849 20.4788 33.7807 20.3946 35.9997 20.3946C38.2289 20.3946 40.4277 20.4797 42.5683 20.6425C43.7895 22.444 44.9466 24.2879 46.0375 26.1709C47.1345 28.0587 48.1697 29.9816 49.1414 31.9365C48.1797 33.9115 47.1478 35.8516 46.0477 37.7532ZM52.3927 3.47279C54.8035 4.86058 55.7412 10.4569 54.2264 17.7959C54.1297 18.2641 54.0211 18.741 53.903 19.2247C50.9155 18.5364 47.6719 18.0247 44.2758 17.7066C42.2975 14.8948 40.2474 12.3385 38.1895 10.1254C38.7289 9.60655 39.281 9.10113 39.8455 8.60964C45.1612 3.99293 50.1292 2.17006 52.3927 3.47279ZM36 25.4899C39.5508 25.4899 42.4294 28.3629 42.4294 31.9068C42.4294 35.4506 39.5508 38.3236 36 38.3236C32.4492 38.3236 29.5706 35.4506 29.5706 31.9068C29.5706 28.3629 32.4492 25.4899 36 25.4899Z" fill="#00D8FF"/>
</g>
<defs>
<clipPath id="clip0_1155_4711">
<rect width="72" height="64" fill="white"/>
</clipPath>
</defs>
</svg>
