<svg width="256" height="255" viewBox="0 0 256 255" fill="none" xmlns="http://www.w3.org/2000/svg">
<g clipPath="url(#clip0_1155_4798)">
<path d="M150.736 0C148.885 0 147.166 0.397 145.579 0.926C148.951 3.173 150.802 6.148 151.727 9.52C151.794 9.983 151.926 10.314 151.992 10.776C152.058 11.173 152.124 11.57 152.124 11.966C152.389 17.784 150.604 18.511 149.347 21.949C147.43 26.379 147.959 31.139 150.273 34.973C150.471 35.436 150.736 35.965 151.066 36.428C148.554 19.701 162.504 17.189 165.082 11.966C165.28 7.405 161.512 4.363 158.537 2.248C155.694 0.528 153.116 0 150.736 0ZM171.759 3.768C171.495 5.289 171.693 4.892 171.627 5.686C171.561 6.215 171.561 6.876 171.495 7.405C171.363 7.933 171.231 8.462 171.032 8.991C170.9 9.521 170.702 10.049 170.504 10.578C170.239 11.107 170.041 11.57 169.776 12.098C169.578 12.363 169.446 12.628 169.247 12.892L168.851 13.487C168.521 13.95 168.19 14.413 167.859 14.809C167.462 15.206 167.132 15.669 166.669 15.999V16.065C166.272 16.396 165.876 16.793 165.413 17.123C164.025 18.181 162.438 18.974 160.983 19.966C160.521 20.296 160.058 20.561 159.661 20.958C159.198 21.288 158.801 21.618 158.405 22.016C157.942 22.412 157.612 22.809 157.215 23.272C156.885 23.668 156.488 24.132 156.223 24.594C155.893 25.057 155.563 25.519 155.298 25.982C155.033 26.512 154.835 26.974 154.57 27.502C154.372 28.032 154.174 28.495 154.042 29.023C153.843 29.618 153.711 30.147 153.579 30.676C153.513 30.941 153.513 31.271 153.447 31.536C153.38 31.8 153.38 32.065 153.315 32.329C153.315 32.858 153.248 33.453 153.248 33.982C153.248 34.379 153.248 34.775 153.315 35.172C153.315 35.701 153.381 36.23 153.513 36.825C153.579 37.354 153.711 37.882 153.843 38.411C154.042 38.941 154.174 39.469 154.373 39.998C154.504 40.328 154.703 40.659 154.835 40.924L139.63 35.04C137.09 34.3168 134.533 33.6553 131.961 33.056L127.796 32.065C123.829 31.271 119.796 30.676 115.764 30.28C115.632 30.28 115.565 30.213 115.434 30.213C111.501 29.8169 107.551 29.6183 103.599 29.618C100.69 29.618 97.781 29.75 94.939 29.948C90.905 30.213 86.873 30.742 82.839 31.403C81.848 31.536 80.856 31.734 79.865 31.933C77.815 32.329 75.832 32.792 73.915 33.255L70.939 34.048C69.948 34.445 69.022 34.908 68.097 35.304L65.915 36.296C65.783 36.362 65.65 36.362 65.585 36.428C64.923 36.758 64.328 37.023 63.733 37.353C63.5737 37.4071 63.4189 37.4737 63.27 37.552C62.543 37.882 61.816 38.279 61.221 38.61C60.758 38.808 60.295 39.072 59.899 39.27C59.7071 39.3916 59.5085 39.5021 59.304 39.601C58.709 39.931 58.114 40.262 57.584 40.593C57.0371 40.8935 56.5075 41.2247 55.998 41.585C55.535 41.915 55.073 42.18 54.676 42.51C54.61 42.576 54.544 42.576 54.477 42.642C54.081 42.907 53.618 43.237 53.221 43.568L53.089 43.7L52.098 44.493C51.965 44.56 51.833 44.692 51.701 44.758C51.371 45.022 51.04 45.353 50.709 45.618C50.643 45.749 50.511 45.816 50.445 45.882C50.048 46.279 49.651 46.609 49.255 47.006C49.188 47.006 49.188 47.072 49.123 47.138C48.726 47.468 48.329 47.865 47.933 48.262C47.866 48.328 47.866 48.394 47.8 48.394C47.47 48.724 47.14 49.055 46.809 49.452C46.677 49.584 46.479 49.716 46.346 49.848C46.016 50.245 45.619 50.642 45.222 51.038C45.156 51.171 45.024 51.237 44.957 51.369C44.429 51.898 43.966 52.427 43.437 52.956L43.239 53.154C42.181 54.278 41.057 55.402 39.867 56.394C38.6947 57.4401 37.4579 58.4117 36.164 59.303C34.8821 60.202 33.5586 61.0402 32.198 61.815C30.8487 62.555 29.458 63.2171 28.033 63.798C26.6266 64.3956 25.1923 64.9253 23.735 65.385C20.959 65.98 18.115 67.104 15.67 67.302C15.14 67.302 14.546 67.434 14.017 67.5C13.4643 67.6253 12.9133 67.7576 12.364 67.897L10.777 68.492C10.248 68.69 9.71998 68.955 9.19098 69.219C8.72798 69.549 8.19898 69.814 7.73598 70.145C7.27298 70.475 6.81098 70.872 6.41398 71.269C5.95098 71.599 5.48798 72.062 5.09198 72.459C4.69498 72.922 4.29798 73.319 3.96798 73.781C3.63798 74.31 3.24098 74.773 2.97598 75.301C2.64598 75.765 2.31498 76.293 2.04998 76.822C1.78598 77.417 1.52198 77.946 1.32298 78.542C1.11444 79.1111 0.916076 79.6838 0.727977 80.26C0.595977 80.789 0.463977 81.318 0.397977 81.847C0.397977 81.913 0.330977 81.979 0.330977 82.045C0.198977 82.64 0.198977 83.434 0.132977 83.83C0.0669766 84.293 0.000976562 84.69 0.000976562 85.152C0.000976562 85.417 0.000976562 85.747 0.0669766 86.012C0.132977 86.475 0.198977 86.872 0.331977 87.268C0.463977 87.665 0.595977 88.061 0.794977 88.458V88.524C0.992977 88.921 1.25698 89.318 1.52198 89.714C1.78598 90.111 2.05098 90.508 2.38198 90.904C2.71198 91.234 3.10798 91.632 3.50498 91.962C3.90198 92.359 4.29898 92.689 4.76098 93.02C6.34798 94.408 6.74498 94.871 8.79398 95.929C9.12398 96.127 9.45498 96.259 9.85198 96.458C9.91798 96.458 9.98398 96.524 10.05 96.524C10.05 96.656 10.05 96.722 10.117 96.854C10.183 97.384 10.315 97.912 10.447 98.441C10.579 99.036 10.777 99.565 10.976 100.028C11.174 100.425 11.306 100.821 11.505 101.218C11.571 101.35 11.637 101.483 11.703 101.548C11.968 102.078 12.233 102.54 12.497 103.003L13.488 104.391C13.818 104.788 14.215 105.251 14.612 105.648C15.009 106.044 15.406 106.375 15.868 106.771C15.868 106.771 15.935 106.838 16 106.838C16.397 107.168 16.794 107.498 17.19 107.763C17.653 108.093 18.116 108.358 18.645 108.623C19.108 108.887 19.637 109.152 20.165 109.35C20.562 109.548 21.025 109.68 21.488 109.813C21.554 109.879 21.62 109.879 21.752 109.945C22.017 110.011 22.347 110.077 22.612 110.143C22.413 113.713 22.347 117.085 22.876 118.275C23.471 119.597 26.38 115.565 29.289 110.937C28.893 115.498 28.629 120.853 29.289 122.44C30.016 124.093 33.983 118.936 37.421 113.25C84.295 102.408 127.069 134.803 131.565 180.553C130.705 173.413 121.913 169.446 117.88 170.438C115.896 175.33 112.525 181.611 107.104 185.511C107.566 181.148 107.368 176.652 106.442 172.289C104.988 178.371 102.145 184.057 98.244 188.949C91.964 189.412 85.684 186.371 82.377 181.809C82.113 181.611 82.047 181.214 81.849 180.949C81.65 180.487 81.452 180.024 81.319 179.561C81.1264 179.118 80.9933 178.651 80.923 178.173C80.857 177.71 80.857 177.247 80.857 176.718V175.727C80.923 175.264 81.055 174.801 81.187 174.338C81.319 173.876 81.452 173.413 81.65 172.95C81.915 172.487 82.113 172.024 82.443 171.562C83.567 168.388 83.567 165.81 81.518 164.289C81.121 164.03 80.7005 163.809 80.262 163.629C79.997 163.562 79.667 163.429 79.402 163.364C79.204 163.297 79.072 163.231 78.873 163.165C78.411 163.033 77.948 162.901 77.485 162.835C77.0339 162.704 76.5667 162.637 76.097 162.636C75.634 162.57 75.105 162.504 74.642 162.504C74.312 162.504 73.982 162.57 73.65 162.57C73.122 162.57 72.659 162.637 72.196 162.769C71.733 162.835 71.27 162.901 70.808 163.033C70.345 163.165 69.882 163.298 69.419 163.496C68.957 163.694 68.559 163.893 68.097 164.091C67.7 164.289 67.304 164.554 66.841 164.752C51.437 174.802 60.626 198.337 71.138 205.147C67.171 205.874 63.138 206.734 62.015 207.593L61.883 207.725C64.725 209.445 67.7 210.899 70.808 212.155C75.039 213.543 79.535 214.799 81.518 215.328V215.394C86.9954 216.517 92.5965 216.917 98.178 216.584C127.466 214.534 151.465 192.255 155.828 162.901C155.96 163.496 156.093 164.025 156.225 164.62C156.423 165.81 156.688 167.066 156.82 168.322V168.389C156.952 168.984 157.018 169.579 157.085 170.108V170.372C157.151 170.967 157.217 171.562 157.217 172.091C157.283 172.818 157.349 173.545 157.349 174.273V175.33C157.349 175.661 157.415 176.058 157.415 176.388C157.415 176.785 157.349 177.182 157.349 177.578V178.504C157.349 178.967 157.283 179.364 157.283 179.826C157.283 180.091 157.283 180.355 157.216 180.686C157.216 181.148 157.15 181.611 157.15 182.14C157.084 182.338 157.084 182.537 157.084 182.735C157.018 183.264 156.952 183.727 156.885 184.255C156.885 184.454 156.885 184.652 156.819 184.851C156.753 185.511 156.621 186.107 156.555 186.768V186.9C156.423 187.495 156.29 188.157 156.158 188.752V188.95L155.761 190.735C155.761 190.801 155.695 190.933 155.695 190.999C155.563 191.594 155.431 192.189 155.232 192.785V192.983C155.034 193.644 154.836 194.239 154.704 194.834C154.637 194.9 154.637 194.966 154.637 194.966L154.042 196.949C153.778 197.611 153.58 198.206 153.315 198.867C153.051 199.527 152.852 200.189 152.588 200.784C152.323 201.445 152.058 202.04 151.795 202.701H151.728C151.464 203.296 151.199 203.957 150.868 204.552C150.814 204.711 150.748 204.866 150.67 205.015C150.604 205.082 150.604 205.147 150.538 205.214C146.241 213.874 139.894 221.477 131.961 227.427C131.431 227.757 130.903 228.155 130.374 228.551C130.242 228.683 130.044 228.75 129.911 228.881C129.448 229.212 128.986 229.543 128.457 229.873L128.655 230.27H128.721L131.498 229.873H131.564C133.284 229.609 135.002 229.278 136.721 228.948C137.184 228.882 137.713 228.75 138.175 228.618C138.506 228.551 138.77 228.485 139.101 228.419C139.564 228.353 140.027 228.221 140.489 228.154C140.886 228.022 141.283 227.956 141.679 227.824C148.291 226.237 154.704 224.055 160.852 221.477C150.34 235.823 136.258 247.393 119.796 254.996C127.399 254.467 135.002 253.211 142.341 251.096C168.984 243.228 191.396 225.312 204.817 201.181C202.093 216.488 196.019 231.004 187.032 243.691C193.439 239.465 199.359 234.542 204.684 229.014C219.494 213.544 229.212 193.908 232.518 172.818C234.773 183.281 235.42 194.027 234.435 204.685C282.168 138.109 238.402 69.088 220.089 50.907C220.022 50.775 219.957 50.709 219.957 50.577C219.89 50.643 219.89 50.643 219.89 50.709C219.89 50.642 219.89 50.642 219.824 50.577C219.824 51.37 219.758 52.163 219.692 52.957C219.494 54.477 219.295 55.932 219.031 57.387C218.701 58.841 218.304 60.295 217.907 61.75C217.436 63.1811 216.907 64.5923 216.32 65.98C215.712 67.3503 215.051 68.696 214.337 70.014C213.61 71.27 212.817 72.592 211.957 73.782C211.107 75.0115 210.203 76.2027 209.247 77.352C208.254 78.542 207.197 79.6 206.139 80.658C205.516 81.2275 204.877 81.7784 204.222 82.31C203.692 82.773 203.23 83.17 202.701 83.633C201.511 84.558 200.321 85.418 198.999 86.211C197.743 87.004 196.42 87.798 195.099 88.459C193.709 89.12 192.321 89.715 190.933 90.31C189.524 90.8419 188.09 91.3051 186.636 91.698C185.174 92.0915 183.696 92.4225 182.206 92.69C180.686 92.955 179.166 93.087 177.711 93.219C176.653 93.285 175.595 93.351 174.537 93.351C173.017 93.351 171.496 93.219 170.042 93.087C168.521 92.954 167 92.756 165.546 92.425C164.026 92.161 162.571 91.765 161.116 91.302H161.05C162.505 91.169 163.96 91.037 165.414 90.772C166.905 90.5118 168.384 90.1811 169.844 89.781C171.298 89.3881 172.731 88.9249 174.14 88.393C175.595 87.863 176.983 87.203 178.306 86.541C179.694 85.881 180.95 85.153 182.272 84.36C183.528 83.5 184.785 82.64 185.975 81.715C187.159 80.7942 188.285 79.8006 189.346 78.74C190.47 77.748 191.462 76.625 192.454 75.5C193.42 74.3424 194.346 73.1517 195.23 71.93C195.362 71.732 195.495 71.468 195.627 71.27C196.288 70.212 196.949 69.154 197.544 68.096C198.271 66.7851 198.933 65.4392 199.528 64.063C200.125 62.6796 200.654 61.268 201.114 59.833C201.577 58.443 201.908 56.989 202.238 55.535C202.503 54.015 202.768 52.56 202.899 51.105C203.031 49.585 203.164 48.065 203.164 46.61C203.164 45.552 203.098 44.494 203.032 43.436C202.9 41.916 202.702 40.461 202.502 39.006C202.242 37.5149 201.912 36.0369 201.512 34.577C201.048 33.189 200.586 31.734 200.057 30.346C199.527 28.958 198.867 27.569 198.206 26.247C197.478 24.925 196.751 23.602 195.958 22.347C195.114 21.1078 194.232 19.8949 193.313 18.71C192.318 17.5696 191.304 16.4455 190.272 15.338C189.715 14.7709 189.142 14.22 188.553 13.686C185.591 11.3856 182.524 9.22328 179.363 7.206C178.936 6.95973 178.494 6.73933 178.041 6.546C175.86 5.157 173.811 4.43 171.761 3.769L171.759 3.768Z" fill="#E0234E"/>
</g>
<defs>
<clipPath id="clip0_1155_4798">
<rect width="256" height="255" fill="white"/>
</clipPath>
</defs>
</svg>
