<svg width="256" height="288" viewBox="0 0 256 288" fill="none" xmlns="http://www.w3.org/2000/svg">
<g clipPath="url(#clip0_1155_4787)">
<path d="M222.484 215.61C225.483 215.61 226.518 214.91 227.944 212.475C229.37 210.041 228.684 206.087 228.63 205.011C228.496 202.644 227.702 200.008 227.594 198.69C227.594 197.883 227.594 192.731 227.715 190.62C229.518 157.21 243.855 149.262 247.997 148.361C250.639 147.582 253.473 147.773 255.987 148.899V83.5073C255.987 76.1233 250.741 67.0453 244.339 63.3333L139.62 2.80927C133.165 -0.92973 122.634 -0.92973 116.285 2.76927L11.6749 63.2123C5.28389 66.9103 0.0398899 75.9893 0.0528899 83.3863V96.5933C0.0474742 96.6698 0.0474742 96.7467 0.0528899 96.8233V116.109C0.666516 116.448 1.2717 116.802 1.86789 117.171C3.89889 118.516 5.90289 119.256 7.94789 120.668C13.7736 124.218 19.1868 128.405 24.0879 133.15C25.0419 134.064 28.2299 138.072 28.9829 139.014C31.2978 142.204 33.9 145.175 36.7569 147.89C38.3351 149.33 40.0723 150.585 41.9349 151.63C45.0149 153.23 50.0989 152.867 52.6949 151.723C72.6269 143.089 85.1349 147.42 90.9049 150.89C105.175 159.457 109.936 171.44 111.456 185.993C111.655 187.878 111.718 189.775 111.644 191.669C111.644 195.125 111.524 200.68 115.168 201.609C120.4 202.953 121.664 197.358 122.444 193.646C124.206 185.24 135.396 179.726 143.587 183.962C149.236 186.881 151.549 188.535 157.131 186.074C164.111 182.994 167.716 175.153 170.151 170.984C172.556 166.924 176.038 163.61 180.211 161.407C191.105 154.615 218.488 156.377 219.483 186.558V194.951C219.483 197.829 219.577 200.64 219.389 203.612C219.269 205.589 218.919 207.647 218.73 209.678C218.676 209.678 217.654 215.582 222.483 215.609" fill="#E4A663"/>
<path d="M255.96 148.953C255.22 148.724 253.068 147.312 247.997 148.415C243.842 149.316 229.517 157.265 227.715 190.674C227.608 192.731 227.541 197.883 227.595 198.744C227.702 200.088 228.495 202.697 228.63 205.064C228.63 206.141 229.45 210.041 227.944 212.529C226.438 215.017 225.483 215.676 222.484 215.663C217.655 215.663 218.677 209.732 218.677 209.732C218.866 207.728 219.215 205.697 219.337 203.666C219.525 200.693 219.43 197.883 219.43 195.004V186.612C218.435 156.431 191.052 154.669 180.158 161.461C175.985 163.663 172.503 166.978 170.098 171.037C167.663 175.207 164.058 183.047 157.078 186.127C151.496 188.589 149.183 186.935 143.534 184.016C135.344 179.779 124.154 185.294 122.391 193.7C121.611 197.412 120.347 202.993 115.115 201.662C111.47 200.734 111.591 195.179 111.591 191.722C111.665 189.828 111.602 187.932 111.403 186.047C109.883 171.494 105.123 159.511 90.853 150.943C85.083 147.473 72.574 143.143 52.642 151.777C49.952 152.92 44.922 153.284 41.882 151.683C40.0195 150.638 38.2823 149.383 36.704 147.944C33.8471 145.229 31.2449 142.257 28.93 139.067C28.177 138.126 24.99 134.117 24.034 133.203C19.1328 128.458 13.7196 124.273 7.894 120.723C5.851 119.377 3.86 118.516 1.816 117.225C1.21955 116.856 0.614031 116.502 0 116.163L0 204.352C0 211.749 5.245 220.828 11.647 224.526L116.367 285.049C122.768 288.762 133.245 288.762 139.647 285.049L244.38 224.607C250.782 220.908 256.013 211.83 256 204.432L255.96 148.953Z" fill="#5E464D"/>
<path d="M141.302 134.131C134.066 138.314 122.217 138.314 114.981 134.131L7.89453 77.6426C9.10453 78.8396 116.487 141.219 116.487 141.219C122.889 144.931 133.367 144.931 139.768 141.219C139.768 141.219 247.002 79.0286 248.213 77.8306L141.302 134.131ZM114.806 10.8656C122.056 6.72256 133.891 6.72256 141.14 10.8786L154.12 16.2586C152.909 15.0616 139.62 6.45356 139.62 6.45356C133.218 2.75556 122.755 2.74156 116.353 6.45356C116.353 6.45356 95.1285 18.9216 93.9325 20.1056L114.806 10.8656Z" fill="white"/>
</g>
<defs>
<clipPath id="clip0_1155_4787">
<rect width="256" height="288" fill="white"/>
</clipPath>
</defs>
</svg>
