<svg width="256" height="206" viewBox="0 0 256 206" fill="none" xmlns="http://www.w3.org/2000/svg">
<g clipPath="url(#clip0_1155_4749)">
<path d="M170.252 56.8185L192.505 34.5655L193.988 25.1955C153.437 -11.6775 88.9758 -7.49646 52.4198 33.9195C42.2668 45.4225 34.7338 59.7635 30.7168 74.5725L38.6868 73.4495L83.1918 66.1095L86.6278 62.5965C106.425 40.8545 139.898 37.9295 162.756 56.4285L170.252 56.8185Z" fill="#EA4335"/>
<path d="M224.205 73.9183C219.09 55.0824 208.589 38.1491 193.988 25.1963L162.756 56.4283C169.265 61.7468 174.481 68.474 178.012 76.1023C181.542 83.7307 183.294 92.0612 183.135 100.465V106.009C198.485 106.009 210.932 118.454 210.932 133.805C210.932 149.157 198.486 161.29 183.135 161.29H127.464L121.998 167.224V200.564L127.464 205.795H183.134C223.064 206.106 255.687 174.301 255.998 134.371C256.091 122.455 253.237 110.701 247.69 100.154C242.143 89.607 234.076 80.5945 224.205 73.9183Z" fill="#4285F4"/>
<path d="M71.8697 205.796H127.463V161.29H71.8697C67.9343 161.289 64.0456 160.437 60.4707 158.792L52.5837 161.212L30.1747 183.465L28.2227 191.039C40.7897 200.528 56.1227 205.864 71.8697 205.796Z" fill="#34A853"/>
<path d="M71.8703 61.4258C31.9403 61.6628 -0.236688 94.2268 0.00131182 134.158C0.0669588 145.161 2.6433 156.005 7.53406 165.862C12.4248 175.719 19.5009 184.329 28.2233 191.038L60.4713 158.792C46.4813 152.47 40.2633 136.006 46.5843 122.016C52.9043 108.026 69.3703 101.808 83.3593 108.128C89.5241 110.913 94.4615 115.851 97.2463 122.016L129.494 89.7678C122.726 80.9197 114.002 73.7573 104.005 68.8407C94.0088 63.9241 83.0104 61.3857 71.8703 61.4258Z" fill="#FBBC05"/>
</g>
<defs>
<clipPath id="clip0_1155_4749">
<rect width="256" height="206" fill="white"/>
</clipPath>
</defs>
</svg>
