<svg width="256" height="264" viewBox="0 0 256 264" fill="none" xmlns="http://www.w3.org/2000/svg">
<g clipPath="url(#clip0_1155_4727)">
<path d="M255.008 158.086C253.473 153.437 249.452 150.199 244.252 149.422C241.8 149.056 238.992 149.212 235.669 149.897C229.877 151.092 225.58 151.547 222.444 151.635C234.281 131.65 243.906 108.86 249.447 87.4068C258.407 52.7178 253.619 36.9148 248.024 29.7668C233.217 10.8468 211.614 0.682787 185.552 0.371788C171.649 0.201788 159.444 2.94679 153.077 4.92079C147.149 3.87479 140.775 3.29079 134.087 3.18279C121.55 2.98279 110.473 5.71579 101.008 11.3328C95.7676 9.56079 87.3576 7.06279 77.6456 5.46879C54.8036 1.71879 36.3936 4.64079 22.9276 14.1538C6.62162 25.6718 -0.937376 45.6838 0.460624 73.6338C0.904624 82.5078 5.86862 109.508 13.6846 135.114C18.1766 149.832 22.9666 162.054 27.9216 171.444C34.9486 184.759 42.4676 192.6 50.9086 195.416C55.6396 196.992 64.2356 198.096 73.2766 190.566C74.4226 191.954 75.9516 193.333 77.9806 194.614C80.5576 196.239 83.7086 197.567 86.8556 198.354C98.1966 201.189 108.82 200.48 117.883 196.506C117.939 198.118 117.982 199.658 118.018 200.988C118.078 203.145 118.138 205.26 118.217 207.238C118.754 220.612 119.664 231.011 122.36 238.287C122.508 238.687 122.707 239.297 122.917 239.944C124.262 244.062 126.511 250.956 132.233 256.355C138.158 261.948 145.325 263.663 151.889 263.663C155.181 263.663 158.322 263.231 161.077 262.641C170.897 260.536 182.05 257.33 190.118 245.842C197.746 234.982 201.454 218.625 202.125 192.852C202.212 192.123 202.292 191.427 202.369 190.764L202.529 189.402L204.326 189.56L204.789 189.591C214.791 190.047 227.021 187.926 234.532 184.437C240.467 181.683 259.486 171.642 255.008 158.086Z" fill="black"/>
<path d="M237.906 160.722C208.166 166.857 206.121 156.788 206.121 156.788C237.521 110.195 250.648 51.0523 239.321 36.5773C208.417 -2.90768 154.922 15.7663 154.029 16.2503L153.742 16.3023C147.866 15.0823 141.291 14.3563 133.9 14.2353C120.444 14.0153 110.236 17.7633 102.49 23.6373C102.49 23.6373 7.05983 -15.6767 11.4988 73.0813C12.4428 91.9633 38.5628 215.954 69.7168 178.503C81.1038 164.808 92.1068 153.229 92.1068 153.229C97.5708 156.859 104.113 158.711 110.971 158.046L111.504 157.594C111.338 159.294 111.414 160.957 111.717 162.926C103.691 171.893 106.05 173.467 90.0058 176.77C73.7708 180.116 83.3078 186.072 89.5348 187.63C97.0838 189.517 114.548 192.191 126.348 175.672L125.878 177.557C129.022 180.076 131.23 193.94 130.86 206.509C130.49 219.077 130.243 227.706 132.72 234.446C135.199 241.186 137.668 256.351 158.76 251.832C176.383 248.055 185.516 238.268 186.787 221.942C187.688 210.336 189.729 212.052 189.857 201.675L191.494 196.763C193.381 181.03 191.794 175.954 202.651 178.315L205.291 178.547C213.281 178.91 223.741 177.261 229.88 174.408C243.098 168.274 250.938 158.031 237.904 160.722H237.906Z" fill="#336791"/>
<path d="M108.076 81.525C105.396 81.152 102.969 81.497 101.741 82.427C101.051 82.95 100.837 83.556 100.779 83.973C100.625 85.078 101.399 86.3 101.875 86.93C103.221 88.714 105.187 89.94 107.133 90.21C107.415 90.25 107.696 90.268 107.975 90.268C111.22 90.268 114.171 87.741 114.431 85.876C114.756 83.54 111.365 81.982 108.076 81.525ZM196.86 81.599C196.604 79.768 193.346 79.246 190.254 79.676C187.166 80.106 184.172 81.5 184.422 83.335C184.622 84.762 187.199 87.198 190.249 87.198C190.507 87.198 190.767 87.181 191.029 87.144C193.065 86.862 194.559 85.569 195.269 84.824C196.349 83.688 196.975 82.422 196.86 81.599Z" fill="white"/>
<path d="M247.802 160.025C246.668 156.596 243.018 155.493 236.954 156.745C218.949 160.461 212.501 157.887 210.384 156.328C224.379 135.008 235.892 109.236 242.103 85.1911C245.045 73.8011 246.67 63.2231 246.803 54.6011C246.95 45.1381 245.338 38.1841 242.014 33.9361C228.612 16.8111 208.942 7.62506 185.132 7.37306C168.763 7.18906 154.933 11.3781 152.252 12.5561C146.606 11.1521 140.451 10.2901 133.75 10.1801C121.462 9.98106 110.84 12.9231 102.046 18.9201C98.2259 17.4981 88.3539 14.1091 76.2809 12.1641C55.4089 8.80406 38.8229 11.3501 26.9869 19.7351C12.8639 29.7411 6.34394 47.6271 7.60694 72.8951C8.03194 81.3961 12.8759 107.548 20.5199 132.593C30.5819 165.557 41.5199 184.218 53.0279 188.057C54.3749 188.506 55.9279 188.82 57.6409 188.82C61.8389 188.82 66.9859 186.928 72.3409 180.49C78.8725 172.655 85.629 165.009 92.6019 157.564C97.1259 159.992 102.096 161.348 107.179 161.484C107.189 161.617 107.202 161.75 107.214 161.882C106.339 162.925 105.482 163.984 104.644 165.057C101.122 169.528 100.389 170.459 89.0519 172.793C85.8269 173.459 77.2619 175.224 77.1359 181.228C76.9999 187.788 87.2609 190.543 88.4299 190.835C92.5039 191.855 96.4289 192.358 100.172 192.358C109.275 192.358 117.286 189.366 123.688 183.577C123.491 206.963 124.466 230.007 127.274 237.028C129.574 242.776 135.192 256.823 152.938 256.822C155.542 256.822 158.408 256.519 161.561 255.843C180.082 251.873 188.125 243.687 191.236 225.64C192.901 215.995 195.758 192.964 197.102 180.61C199.938 181.495 203.589 181.9 207.536 181.899C215.768 181.899 225.267 180.15 231.224 177.385C237.916 174.277 249.992 166.651 247.802 160.025ZM203.696 76.5451C203.635 80.1921 203.133 83.5031 202.601 86.9591C202.028 90.6761 201.436 94.5191 201.287 99.1841C201.14 103.724 201.707 108.444 202.255 113.009C203.363 122.229 204.5 131.721 200.099 141.087C199.368 139.792 198.717 138.453 198.149 137.078C197.602 135.752 196.414 133.622 194.769 130.674C188.37 119.198 173.385 92.3241 181.056 81.3581C183.341 78.0941 189.14 74.7381 203.696 76.5451ZM186.052 14.7581C207.386 15.2291 224.262 23.2101 236.21 38.4781C245.374 50.1891 235.283 103.476 206.07 149.447C205.776 149.074 205.481 148.701 205.184 148.33L204.814 147.868C212.363 135.401 210.887 123.066 209.573 112.13C209.033 107.642 208.523 103.403 208.653 99.4211C208.787 95.2011 209.345 91.5811 209.885 88.0811C210.548 83.7681 211.223 79.3051 211.037 74.0441C211.176 73.4921 211.232 72.8401 211.159 72.0661C210.684 67.0211 204.924 51.9221 193.184 38.2561C186.762 30.7811 177.397 22.4161 164.61 16.7741C170.11 15.6341 177.631 14.5711 186.052 14.7581ZM66.6739 175.778C60.7739 182.872 56.6999 181.512 55.3599 181.066C46.6299 178.154 36.4999 159.702 27.5689 130.442C19.8409 105.124 15.3249 79.6651 14.9669 72.5261C13.8389 49.9481 19.3119 34.2131 31.2349 25.7571C50.6389 11.9971 82.5409 20.2331 95.3599 24.4101C95.1759 24.5921 94.9839 24.7621 94.8019 24.9471C73.7659 46.1911 74.2649 82.4871 74.3169 84.7061C74.3149 85.5621 74.3869 86.7741 74.4849 88.4411C74.8469 94.5461 75.5209 105.908 73.7209 118.775C72.0489 130.732 75.7349 142.435 83.8319 150.884C84.6629 151.75 85.5363 152.573 86.4489 153.352C82.8449 157.212 75.0119 165.748 66.6739 175.778ZM89.1529 145.785C82.6269 138.975 79.6629 129.503 81.0199 119.795C82.9199 106.203 82.2189 94.3651 81.8419 88.0051C81.7889 87.1151 81.7419 86.3351 81.7149 85.7201C84.7879 82.9951 99.0289 75.3651 109.185 77.6921C113.819 78.7531 116.643 81.9091 117.817 87.3371C123.893 115.44 118.621 127.153 114.385 136.566C113.512 138.505 112.687 140.338 111.983 142.234L111.437 143.7C110.055 147.406 108.769 150.852 107.972 154.124C101.034 154.104 94.2849 151.14 89.1529 145.784M90.2179 183.684C88.1919 183.178 86.3699 182.299 85.3009 181.57C86.1939 181.15 87.7829 180.578 90.5389 180.01C103.876 177.265 105.936 175.327 110.434 169.616C111.465 168.306 112.634 166.822 114.253 165.014L114.255 165.012C116.666 162.312 117.769 162.77 119.769 163.6C121.39 164.27 122.969 166.302 123.609 168.538C123.912 169.594 124.252 171.598 123.139 173.158C113.743 186.314 100.051 186.145 90.2179 183.684ZM160.017 248.636C143.701 252.132 137.924 243.807 134.117 234.29C131.66 228.146 130.452 200.44 131.309 169.843C131.32 169.436 131.262 169.043 131.15 168.673C131.05 167.942 130.897 167.22 130.694 166.511C129.42 162.059 126.315 158.335 122.59 156.791C121.11 156.178 118.394 155.053 115.13 155.888C115.826 153.02 117.033 149.781 118.342 146.274L118.891 144.799C119.509 143.136 120.285 141.413 121.105 139.589C125.538 129.741 131.609 116.252 125.02 85.7791C122.552 74.3651 114.31 68.7911 101.816 70.0861C94.3259 70.8611 87.4729 73.8831 84.0549 75.6161C83.3199 75.9881 82.6479 76.3481 82.0199 76.6981C82.9739 65.1981 86.5779 43.7061 100.06 30.1081C108.549 21.5481 119.854 17.3201 133.628 17.5481C160.768 17.9921 178.172 31.9201 187.994 43.5271C196.458 53.5281 201.041 63.6031 202.87 69.0371C189.115 67.6381 179.76 70.3531 175.018 77.1331C164.701 91.8811 180.662 120.505 188.333 134.262C189.74 136.783 190.954 138.962 191.336 139.888C193.834 145.942 197.068 149.984 199.429 152.934C200.153 153.838 200.855 154.715 201.389 155.481C197.223 156.682 189.74 159.457 190.422 173.328C189.872 180.288 185.961 212.874 183.974 224.387C181.351 239.597 175.754 245.261 160.017 248.636ZM228.121 170.701C223.861 172.678 216.732 174.161 209.96 174.48C202.48 174.83 198.672 173.642 197.776 172.911C197.356 164.267 200.573 163.364 203.978 162.408C204.513 162.258 205.035 162.111 205.539 161.935C205.852 162.19 206.195 162.443 206.571 162.691C212.583 166.659 223.306 167.087 238.445 163.962L238.611 163.929C236.569 165.838 233.075 168.4 228.121 170.701Z" fill="white"/>
</g>
<defs>
<clipPath id="clip0_1155_4727">
<rect width="256" height="264" fill="white"/>
</clipPath>
</defs>
</svg>
