<svg width="256" height="310" viewBox="0 0 256 310" fill="none" xmlns="http://www.w3.org/2000/svg">
<g clipPath="url(#clip0_1155_4734)">
<path d="M254.313 235.519L148 9.74878C146.679 6.97082 144.631 4.60166 142.074 2.89202C139.517 1.18237 136.545 0.195827 133.473 0.0367825C130.395 -0.169474 127.32 0.472111 124.581 1.89176C121.843 3.31142 119.546 5.45479 117.94 8.08878L2.63312 194.848C0.879821 197.668 -0.0332573 200.929 0.000925784 204.249C0.0351089 207.57 1.01514 210.812 2.82612 213.595L59.2001 300.896C61.3329 304.173 64.468 306.673 68.1377 308.023C71.8075 309.372 75.8152 309.499 79.5631 308.385L243.162 259.993C245.625 259.273 247.905 258.032 249.848 256.355C251.791 254.678 253.35 252.603 254.422 250.271C255.479 247.951 256.017 245.429 256 242.88C255.982 240.331 255.409 237.816 254.321 235.511L254.313 235.519ZM230.511 245.202L91.6881 286.252C87.4531 287.512 83.3881 283.841 84.2691 279.567L133.867 42.0828C134.794 37.6398 140.93 36.9358 142.87 41.0478L234.684 236.021C235.09 236.89 235.303 237.836 235.307 238.795C235.312 239.754 235.109 240.702 234.711 241.575C234.314 242.448 233.732 243.224 233.006 243.85C232.279 244.476 231.426 244.937 230.504 245.201L230.511 245.202Z" fill="white"/>
</g>
<defs>
<clipPath id="clip0_1155_4734">
<rect width="256" height="310" fill="white"/>
</clipPath>
</defs>
</svg>
