<svg width="42" height="42" viewBox="0 0 42 42" fill="none" xmlns="http://www.w3.org/2000/svg">
<path fillRule="evenodd" clipRule="evenodd" d="M10.9933 10.9808C9.02477 11.3801 7.54303 13.1204 7.54303 15.2068C7.54303 17.5884 9.47367 19.5191 11.8552 19.5191L11.8824 19.519H20.1609V21.7689C19.0963 22.041 18.2582 22.8792 17.9861 23.9439H7.32734C6.91313 23.9439 6.57734 24.2797 6.57734 24.6939V29.5494H5.53229C4.56579 29.5494 3.78229 30.3329 3.78229 31.2994V35.8241C3.78229 36.7906 4.56579 37.5741 5.53229 37.5741H9.33198C10.2985 37.5741 11.082 36.7906 11.082 35.8241V31.2994C11.082 30.3329 10.2985 29.5494 9.33198 29.5494H8.07734V25.4439H17.9863C18.2585 26.5082 19.0965 27.3461 20.1609 27.6182V29.5494H19.011C18.0445 29.5494 17.261 30.3329 17.261 31.2994V35.8241C17.261 36.7906 18.0445 37.5741 19.011 37.5741H22.8107C23.7772 37.5741 24.5607 36.7906 24.5607 35.8241V31.2994C24.5607 30.3329 23.7772 29.5494 22.8107 29.5494H21.6609V27.6182C22.7252 27.346 23.5631 26.5082 23.8354 25.4439H33.7443V29.5494H32.6682C31.7017 29.5494 30.9182 30.3329 30.9182 31.2994V35.8241C30.9182 36.7906 31.7017 37.5741 32.6682 37.5741H36.4679C37.4344 37.5741 38.2179 36.7906 38.2179 35.8241V31.2994C38.2179 30.3329 37.4344 29.5494 36.4679 29.5494H35.2443V24.6939C35.2443 24.2797 34.9085 23.9439 34.4943 23.9439H23.8355C23.5635 22.8793 22.7254 22.0411 21.6609 21.7689V19.519H29.5081L29.5353 19.5191C31.9169 19.5191 33.8475 17.5884 33.8475 15.2068C33.8475 12.8253 31.9169 10.8946 29.5353 10.8946C29.181 10.8946 28.8367 10.9374 28.5072 11.018C27.7266 9.65603 26.2585 8.73851 24.5762 8.73851C24.2403 8.73851 23.9129 8.7751 23.5978 8.84451C22.7404 6.277 20.3169 4.42627 17.4611 4.42627C13.8887 4.42627 10.9928 7.32223 10.9928 10.8946C10.9928 10.9234 10.993 10.9521 10.9933 10.9808ZM11.8824 18.0189L29.5175 18.019L29.5353 18.0191C31.0885 18.0191 32.3475 16.76 32.3475 15.2068C32.3475 13.6537 31.0885 12.3946 29.5353 12.3946C29.302 12.3946 29.0774 12.4227 28.8636 12.475L27.7672 12.7432L27.2059 11.7639C26.6816 10.8492 25.6993 10.2385 24.5762 10.2385C24.3495 10.2385 24.1303 10.2632 23.9205 10.3094L22.6025 10.5997L22.175 9.3196C21.5159 7.34579 19.6523 5.92627 17.4611 5.92627C14.7172 5.92627 12.4928 8.15066 12.4928 10.8946C12.4928 10.9168 12.4929 10.939 12.4932 10.9612L12.5094 12.2038L11.2915 12.4508C10.0084 12.7111 9.04303 13.8479 9.04303 15.2068C9.04303 16.76 10.3021 18.0191 11.8552 18.0191L11.8731 18.019L11.8824 18.0189ZM20.9108 26.2121C21.7495 26.2121 22.4294 25.5322 22.4294 24.6935C22.4294 23.8549 21.7495 23.175 20.9108 23.175C20.0721 23.175 19.3923 23.8549 19.3923 24.6935C19.3923 25.5322 20.0721 26.2121 20.9108 26.2121ZM5.28229 31.2994C5.28229 31.1614 5.39422 31.0494 5.53229 31.0494H9.33198C9.47005 31.0494 9.58198 31.1613 9.58198 31.2994V35.8241C9.58198 35.9621 9.47005 36.0741 9.33198 36.0741H5.53229C5.39422 36.0741 5.28229 35.9621 5.28229 35.8241V31.2994ZM18.761 31.2994C18.761 31.1614 18.873 31.0494 19.011 31.0494H22.8107C22.9488 31.0494 23.0607 31.1613 23.0607 31.2994V35.8241C23.0607 35.9621 22.9488 36.0741 22.8107 36.0741H19.011C18.873 36.0741 18.761 35.9621 18.761 35.8241V31.2994ZM32.6682 31.0494C32.5301 31.0494 32.4182 31.1614 32.4182 31.2994V35.8241C32.4182 35.9621 32.5301 36.0741 32.6682 36.0741H36.4679C36.6059 36.0741 36.7179 35.9621 36.7179 35.8241V31.2994C36.7179 31.1613 36.6059 31.0494 36.4679 31.0494H32.6682Z" fill="white"/>
</svg>
