<svg width="256" height="260" viewBox="0 0 256 260" fill="none" xmlns="http://www.w3.org/2000/svg">
<g clipPath="url(#clip0_1155_4606)">
<path d="M239.184 106.203C245.054 88.5242 243.022 69.1734 233.608 53.0999C219.452 28.4588 191 15.7836 163.213 21.7395C147.554 4.32146 123.795 -3.42399 100.879 1.41874C77.9631 6.26146 59.369 22.9573 52.096 45.2214C33.8436 48.9645 18.0902 60.3927 8.86672 76.5818C-5.44349 101.183 -2.19544 132.215 16.8987 153.32C11.0061 170.991 13.0197 190.344 22.4238 206.423C36.5976 231.072 65.068 243.747 92.8696 237.783C105.236 251.708 123.001 259.631 141.624 259.527C170.105 259.552 195.338 241.166 204.038 214.046C222.287 210.296 238.038 198.87 247.267 182.685C261.404 158.128 258.142 127.263 239.184 106.203ZM141.624 242.541C130.256 242.559 119.244 238.575 110.519 231.286L112.054 230.416L163.725 200.591C166.341 199.056 167.954 196.257 167.971 193.224V120.374L189.816 133.01C190.034 133.121 190.186 133.331 190.225 133.573V193.94C190.169 220.758 168.442 242.485 141.624 242.541ZM37.1576 197.931C31.4565 188.086 29.4095 176.547 31.3766 165.342L32.9114 166.263L84.633 196.089C87.2389 197.618 90.4683 197.618 93.0742 196.089L156.255 159.664V184.885C156.244 185.15 156.112 185.395 155.897 185.55L103.562 215.734C80.3055 229.132 50.5925 221.165 37.1576 197.931ZM23.5493 85.3811C29.29 75.4733 38.3512 67.9163 49.1287 64.0479V125.439C49.0892 128.459 50.6965 131.263 53.3238 132.754L116.198 169.026L94.3532 181.662C94.1132 181.789 93.8257 181.789 93.5858 181.662L41.3526 151.53C18.1419 138.076 10.1818 108.386 23.5493 85.1253V85.3811ZM203.015 127.076L139.936 90.4459L161.729 77.8608C161.969 77.7334 162.257 77.7334 162.497 77.8608L214.73 108.045C231.032 117.452 240.437 135.426 238.872 154.183C237.306 172.939 225.051 189.106 207.414 195.68V134.289C207.323 131.277 205.651 128.536 203.015 127.076ZM224.757 94.3851L223.222 93.4642L171.603 63.3828C168.981 61.8444 165.732 61.8444 163.111 63.3828L99.9807 99.8079V74.5866C99.9533 74.3254 100.071 74.0702 100.288 73.9215L152.521 43.789C168.863 34.3744 189.174 35.2529 204.643 46.0435C220.111 56.8341 227.949 75.5924 224.757 94.1805V94.3851ZM88.0606 139.098L66.2158 126.513C65.995 126.379 65.8451 126.154 65.8065 125.899V65.685C65.8314 46.8285 76.7501 29.6846 93.8271 21.6883C110.904 13.692 131.064 16.2835 145.563 28.339L144.028 29.2087L92.358 59.0343C89.7419 60.5688 88.1283 63.3684 88.1118 66.4012L88.0606 139.098ZM99.9295 113.519L128.067 97.3011L156.255 113.519V145.953L128.169 162.171L99.9807 145.953L99.9295 113.519Z" fill="white"/>
</g>
<defs>
<clipPath id="clip0_1155_4606">
<rect width="256" height="260" fill="white"/>
</clipPath>
</defs>
</svg>
