<svg width="30" height="37" viewBox="0 0 30 37" fill="none" xmlns="http://www.w3.org/2000/svg">
<path fillRule="evenodd" clipRule="evenodd" d="M17.9976 17.4531C20.2248 18.739 23.0728 17.9759 24.3587 15.7487C25.6446 13.5215 24.8815 10.6735 22.6543 9.38759C20.427 8.10169 17.579 8.8648 16.2931 11.092C15.0073 13.3193 15.7704 16.1673 17.9976 17.4531ZM18.7476 16.1541C20.2574 17.0258 22.188 16.5085 23.0597 14.9987C23.9314 13.4889 23.4141 11.5583 21.9043 10.6866C20.3945 9.81495 18.4639 10.3322 17.5922 11.842C16.7205 13.3518 17.2378 15.2824 18.7476 16.1541Z" fill="white"/>
<path fillRule="evenodd" clipRule="evenodd" d="M8.66816 14.2084C8.86099 13.818 9.06738 13.4311 9.28811 13.0488C13.6713 5.45684 22.4292 1.8681 26.212 0.622218C27.2203 0.290116 28.2468 0.882744 28.4634 1.92204C29.2758 5.82097 30.5468 15.1999 26.1636 22.7919C25.9582 23.1475 25.7433 23.4944 25.5197 23.8326L26.4841 29.7044C26.5215 29.9323 26.4519 30.1646 26.2954 30.3344L20.9442 36.1376C20.7711 36.3254 20.5143 36.4121 20.2627 36.3678C20.0112 36.3235 19.7995 36.1542 19.7009 35.9185L17.7365 31.2211C17.6588 31.2706 17.5812 31.3195 17.5035 31.368C16.8966 31.7473 16.1303 31.7439 15.5106 31.3861L7.1718 26.5717C6.55202 26.2139 6.16594 25.5519 6.19094 24.8367C6.19412 24.7458 6.19767 24.6547 6.20161 24.5633L1.15361 25.2105C0.900261 25.2429 0.647798 25.1442 0.483641 24.9486C0.319484 24.7529 0.266203 24.4871 0.342248 24.2433L2.69239 16.7074C2.76193 16.4844 2.9314 16.3066 3.15077 16.2264L8.66816 14.2084ZM26.9949 2.22803C27.7956 6.07046 28.9518 14.9624 24.8645 22.0419C23.5933 24.2437 21.9126 26.1003 20.0767 27.6525L8.12204 20.7505C8.54836 18.3845 9.31589 16.0007 10.5872 13.7988C14.6745 6.71939 22.9533 3.27476 26.6812 2.04693C26.7778 2.01512 26.8432 2.03299 26.8846 2.05689C26.926 2.0808 26.9742 2.12846 26.9949 2.22803ZM6.56999 20.9258C6.55213 20.9867 6.54237 21.0489 6.54033 21.1109C6.43867 21.759 6.3607 22.4027 6.30312 23.038L2.12222 23.574L4.01404 17.5078L7.84316 16.1073C7.23985 17.6994 6.83192 19.3251 6.56999 20.9258ZM19.0067 30.3705L20.6338 34.2615L24.9446 29.5865L24.2773 25.5233C23.1921 26.8595 21.9764 28.0399 20.7082 29.0784C20.6607 29.1294 20.607 29.1727 20.549 29.2078C20.0411 29.6176 19.5253 30.0049 19.0067 30.3705ZM18.8148 28.656C18.1217 29.1749 17.4155 29.6542 16.7086 30.096C16.5959 30.1664 16.4248 30.1819 16.2606 30.087L7.9218 25.2726C7.75755 25.1778 7.68538 25.0219 7.69003 24.8891C7.71915 24.0561 7.78113 23.2048 7.88394 22.3451L18.8148 28.656Z" fill="white"/>
<path d="M7.35119 29.1877C7.5583 28.829 7.43539 28.3703 7.07668 28.1632C6.71796 27.9561 6.25926 28.079 6.05216 28.4377L5.24731 29.8317C5.04021 30.1904 5.16311 30.6491 5.52183 30.8562C5.88055 31.0633 6.33924 30.9404 6.54635 30.5817L7.35119 29.1877Z" fill="white"/>
<path d="M10.6293 30.2141C10.988 30.4212 11.1109 30.8799 10.9038 31.2386L8.91736 34.6792C8.71025 35.0379 8.25156 35.1608 7.89284 34.9537C7.53412 34.7466 7.41122 34.2879 7.61832 33.9292L9.60475 30.4886C9.81186 30.1299 10.2706 30.007 10.6293 30.2141Z" fill="white"/>
<path d="M14.4565 33.2897C14.6636 32.931 14.5407 32.4723 14.182 32.2652C13.8232 32.0581 13.3645 32.181 13.1574 32.5397L12.3526 33.9338C12.1455 34.2925 12.2684 34.7512 12.6271 34.9583C12.9858 35.1654 13.4445 35.0425 13.6516 34.6838L14.4565 33.2897Z" fill="white"/>
</svg>
