<svg width="100" height="100" viewBox="0 0 100 100" fill="none" xmlns="http://www.w3.org/2000/svg">
<g clipPath="url(#clip0_1155_4732)">
<path d="M30 30L32.7 28.0467C32.287 27.4762 31.7039 27.0512 31.0344 26.8326C30.3649 26.6141 29.6433 26.6132 28.9733 26.8302C28.3032 27.0471 27.7191 27.4707 27.3047 28.0402C26.8903 28.6096 26.667 29.2957 26.6667 30H30ZM50 93.3333C38.5073 93.3333 27.4853 88.7679 19.3587 80.6413C11.2321 72.5147 6.66667 61.4927 6.66667 50H0C0 63.2608 5.26784 75.9785 14.6447 85.3553C24.0215 94.7322 36.7392 100 50 100V93.3333ZM93.3333 50C93.3333 55.6906 92.2125 61.3255 90.0348 66.5829C87.8571 71.8404 84.6652 76.6174 80.6413 80.6413C76.6174 84.6652 71.8404 87.8571 66.5829 90.0348C61.3255 92.2125 55.6906 93.3333 50 93.3333V100C63.2608 100 75.9785 94.7322 85.3553 85.3553C94.7322 75.9785 100 63.2608 100 50H93.3333ZM50 6.66667C55.6906 6.66667 61.3255 7.78752 66.5829 9.96522C71.8404 12.1429 76.6174 15.3348 80.6413 19.3587C84.6652 23.3826 87.8571 28.1596 90.0348 33.417C92.2125 38.6745 93.3333 44.3094 93.3333 50H100C100 36.7392 94.7322 24.0215 85.3553 14.6447C75.9785 5.26784 63.2608 0 50 0V6.66667ZM50 0C36.7392 0 24.0215 5.26784 14.6447 14.6447C5.26784 24.0215 0 36.7392 0 50H6.66667C6.66667 38.5073 11.2321 27.4853 19.3587 19.3587C27.4853 11.2321 38.5073 6.66667 50 6.66667V0ZM33.3333 80V30H26.6667V80H33.3333ZM27.3 31.9533L70.6333 91.9533L76.0333 88.0467L32.7 28.0467L27.3 31.9533ZM66.6667 26.6667V66.6667H73.3333V26.6667H66.6667Z" fill="white"/>
</g>
<defs>
<clipPath id="clip0_1155_4732">
<rect width="100" height="100" fill="white"/>
</clipPath>
</defs>
</svg>
