<svg width="42" height="42" viewBox="0 0 42 42" fill="none" xmlns="http://www.w3.org/2000/svg">
<path d="M33.443 5.58553C33.0893 5.36994 32.6278 5.4819 32.4122 5.83559C32.1966 6.18928 32.3086 6.65077 32.6623 6.86635L35.1742 8.3974L33.0158 9.88515C32.6747 10.1202 32.5888 10.5873 32.8239 10.9283C33.059 11.2694 33.526 11.3553 33.8671 11.1202L35.8018 9.78662V13.2242C35.8018 13.6384 36.1376 13.9742 36.5518 13.9742C36.966 13.9742 37.3018 13.6384 37.3018 13.2242V8.35875C37.3018 8.09716 37.1655 7.85448 36.9421 7.71833L33.443 5.58553Z" fill="white"/>
<path d="M8.94364 5.58688C9.29658 5.37007 9.75845 5.48043 9.97526 5.83337C10.1921 6.18632 10.0817 6.64819 9.72877 6.865L6.88726 8.6105L8.94785 9.86157C9.30191 10.0765 9.41468 10.5378 9.19971 10.8919C8.98474 11.246 8.52345 11.3587 8.16938 11.1438L6.19827 9.94701V13.2242C6.19827 13.6384 5.86249 13.9742 5.44827 13.9742C5.03406 13.9742 4.69827 13.6384 4.69827 13.2242V8.61424C4.69827 8.35358 4.83361 8.11161 5.05571 7.97518L8.94364 5.58688Z" fill="white"/>
<path d="M21.0001 30.3586C21.4143 30.3586 21.7501 30.6944 21.7501 31.1086V34.3337L24.4579 32.4382C24.7972 32.2006 25.2648 32.2832 25.5024 32.6225C25.7399 32.9618 25.6574 33.4295 25.3181 33.667L21.4302 36.3886C21.172 36.5693 20.8282 36.5693 20.57 36.3886L16.682 33.667C16.3427 33.4295 16.2601 32.9619 16.4977 32.6225C16.7352 32.2832 17.2029 32.2006 17.5422 32.4382L20.2501 34.3337V31.1086C20.2501 30.6944 20.5859 30.3586 21.0001 30.3586Z" fill="white"/>
<path fillRule="evenodd" clipRule="evenodd" d="M21.375 5.51347C21.1276 5.46343 20.8725 5.46343 20.6251 5.51347C20.3413 5.57087 20.0848 5.71162 19.8285 5.85226L19.7677 5.88556L11.4562 10.4264L11.3912 10.4618C11.1211 10.6086 10.849 10.7566 10.6414 10.9781C10.4599 11.1718 10.3218 11.4021 10.2372 11.6541C10.14 11.9433 10.1407 12.253 10.1413 12.5559L10.1414 12.6294V21.5949L10.1413 21.6684C10.1407 21.9713 10.14 22.281 10.2372 22.5702C10.3218 22.8222 10.4599 23.0525 10.6414 23.2462C10.849 23.4677 11.1211 23.6157 11.3912 23.7625L11.4562 23.7979L19.7677 28.3387L19.8285 28.372C20.0848 28.5127 20.3413 28.6534 20.6251 28.7108C20.8725 28.7609 21.1276 28.7609 21.375 28.7108C21.6588 28.6534 21.9153 28.5127 22.1716 28.3721L22.2324 28.3387L30.5439 23.7979L30.6089 23.7625C30.879 23.6157 31.1511 23.4677 31.3587 23.2462C31.5402 23.0525 31.6783 22.8222 31.7629 22.5702C31.8601 22.281 31.8594 21.9713 31.8588 21.6684L31.8587 21.5949V12.6294L31.8588 12.5559C31.8594 12.253 31.8601 11.9433 31.7629 11.6541C31.6783 11.4021 31.5402 11.1718 31.3587 10.9781C31.1511 10.7566 30.879 10.6086 30.6089 10.4618L30.5439 10.4264L22.2324 5.88556L22.1716 5.85226C21.9153 5.71162 21.6588 5.57087 21.375 5.51347ZM20.9225 6.9837C20.9736 6.97335 21.0265 6.97335 21.0776 6.9837C21.1088 6.98999 21.1528 7.00503 21.5132 7.20192L29.5443 11.5895L21 16.2575L12.4558 11.5895L20.4869 7.20192C20.8473 7.00503 20.8913 6.98999 20.9225 6.9837ZM21.75 17.557L30.3587 12.8539V21.5949C30.3587 22.0257 30.3494 22.0676 30.341 22.0925C30.3253 22.1391 30.2994 22.1829 30.2642 22.2205C30.2435 22.2426 30.2066 22.2729 29.8247 22.4816L21.75 26.893L21.75 17.557ZM20.25 17.557L20.25 26.893L12.1754 22.4816C11.7935 22.2729 11.7566 22.2426 11.7359 22.2205C11.7007 22.1829 11.6748 22.1391 11.6591 22.0925C11.6507 22.0676 11.6414 22.0257 11.6414 21.5949V12.8539L20.25 17.557Z" fill="white"/>
</svg>
