<svg width="160" height="160" viewBox="0 0 160 160" fill="none" xmlns="http://www.w3.org/2000/svg">
<path d="M143.44 10H16.56C12.937 10 10 12.937 10 16.56V143.44C10 147.063 12.937 150 16.56 150H143.44C147.063 150 150 147.063 150 143.44V16.56C150 12.937 147.063 10 143.44 10Z" fill="#3178C6"/>
<path fillRule="evenodd" clipRule="evenodd" d="M91.2254 118.795V134.135C94.0126 135.511 96.983 136.479 100.045 137.01C103.584 137.663 107.177 137.985 110.775 137.97C114.283 137.987 117.782 137.633 121.215 136.915C124.298 136.292 127.239 135.106 129.89 133.415C132.352 131.826 134.381 129.651 135.795 127.085C138.329 121.772 138.663 115.673 136.725 110.115C135.908 108.036 134.69 106.139 133.14 104.53C131.477 102.819 129.588 101.344 127.525 100.145C125.151 98.7541 122.683 97.5279 120.14 96.475C118.14 95.645 116.34 94.8383 114.74 94.055C113.319 93.3746 111.959 92.5733 110.675 91.66C109.67 90.9551 108.796 90.0783 108.095 89.07C107.49 88.1545 107.174 87.0776 107.19 85.98C107.177 84.9698 107.459 83.9777 108 83.125C108.589 82.2326 109.374 81.4869 110.295 80.945C111.422 80.2818 112.647 79.8041 113.925 79.53C115.494 79.1814 117.098 79.0137 118.705 79.03C120.057 79.0347 121.407 79.1315 122.745 79.32C124.191 79.5154 125.621 79.8111 127.025 80.205C128.454 80.6009 129.851 81.1023 131.205 81.705C132.52 82.2908 133.777 82.9972 134.96 83.815V69.5C132.496 68.5676 129.94 67.8973 127.335 67.5C124.19 67.0423 121.014 66.8267 117.835 66.855C114.361 66.8363 110.897 67.2307 107.515 68.03C104.459 68.7284 101.553 69.9697 98.9354 71.695C96.5038 73.3148 94.496 75.4941 93.0804 78.05C91.5803 80.8883 90.838 84.0658 90.9254 87.275C90.8146 91.5189 92.2125 95.6646 94.8704 98.975C98.1314 102.645 102.243 105.459 106.845 107.17C108.945 108.037 110.904 108.885 112.72 109.715C114.36 110.444 115.935 111.309 117.43 112.3C118.637 113.085 119.696 114.075 120.56 115.225C121.321 116.268 121.724 117.529 121.71 118.82C121.717 119.787 121.469 120.739 120.99 121.58C120.459 122.483 119.711 123.241 118.815 123.785C117.694 124.469 116.468 124.962 115.185 125.245C113.515 125.618 111.807 125.795 110.095 125.77C106.737 125.764 103.405 125.172 100.25 124.02C96.9545 122.831 93.898 121.061 91.2254 118.795ZM65.4554 80.605H85.4554V67.97H29.6904V80.605H49.6004V136.875H65.4554V80.605Z" fill="white"/>
</svg>
