<svg width="1066" height="697" viewBox="0 0 1066 697" fill="none" xmlns="http://www.w3.org/2000/svg">
<line x1="1064.77" y1="-404.376" x2="1064.77" y2="815.708" stroke="#9898A3" strokeWidth="1.05002"/>
<line x1="969.98" y1="-404.376" x2="969.98" y2="815.708" stroke="#9898A3" strokeWidth="1.05002"/>
<line x1="875.189" y1="-404.376" x2="875.189" y2="815.708" stroke="#9898A3" strokeWidth="1.05002"/>
<line x1="780.4" y1="-404.376" x2="780.4" y2="815.708" stroke="#9898A3" strokeWidth="1.05002"/>
<line x1="685.611" y1="-404.376" x2="685.611" y2="815.708" stroke="#9898A3" strokeWidth="1.05002"/>
<line x1="590.822" y1="-404.376" x2="590.822" y2="815.708" stroke="#9898A3" strokeWidth="1.05002"/>
<line x1="496.033" y1="-404.376" x2="496.033" y2="815.708" stroke="#9898A3" strokeWidth="1.05002"/>
<line x1="-155.84" y1="62.9574" x2="1064.24" y2="62.9577" stroke="#9898A3" strokeWidth="1.05002"/>
<line x1="401.244" y1="-404.376" x2="401.243" y2="815.708" stroke="#9898A3" strokeWidth="1.05002"/>
<line x1="-155.84" y1="157.747" x2="1064.24" y2="157.748" stroke="#9898A3" strokeWidth="1.05002"/>
<line x1="306.455" y1="-404.376" x2="306.454" y2="815.708" stroke="#9898A3" strokeWidth="1.05002"/>
<line x1="-155.84" y1="252.537" x2="1064.24" y2="252.537" stroke="#9898A3" strokeWidth="1.05002"/>
<line x1="211.666" y1="-404.376" x2="211.665" y2="815.708" stroke="#9898A3" strokeWidth="1.05002"/>
<line x1="-155.84" y1="347.326" x2="1064.24" y2="347.326" stroke="#9898A3" strokeWidth="1.05002"/>
<line x1="116.877" y1="-404.376" x2="116.876" y2="815.708" stroke="#9898A3" strokeWidth="1.05002"/>
<line x1="-155.84" y1="442.115" x2="1064.24" y2="442.115" stroke="#9898A3" strokeWidth="1.05002"/>
<line x1="22.0875" y1="-404.376" x2="22.0872" y2="815.708" stroke="#9898A3" strokeWidth="1.05002"/>
<line x1="-155.84" y1="536.904" x2="1064.24" y2="536.904" stroke="#9898A3" strokeWidth="1.05002"/>
<line x1="-155.84" y1="631.693" x2="1064.24" y2="631.693" stroke="#9898A3" strokeWidth="1.05002"/>
</svg>
