<svg width="795" height="468" viewBox="0 0 795 468" fill="none" xmlns="http://www.w3.org/2000/svg">
<g filter="url(#filter0_bd_380_5849)">
<rect width="362.344" height="381.715" rx="13.6734" transform="matrix(0.866025 0.5 -0.866025 0.5 348.906 63.6475)" fill="#101014" fillOpacity="0.8" shapeRendering="crispEdges"/>
<rect x="-2.98023e-08" y="0.5" width="361.344" height="380.715" rx="13.1734" transform="matrix(0.866025 0.5 -0.866025 0.5 349.339 63.8975)" stroke="url(#paint0_linear_380_5849)" shapeRendering="crispEdges"/>
</g>
<g filter="url(#filter1_bd_380_5849)">
<rect width="362.344" height="381.715" rx="13.6734" transform="matrix(0.866025 0.5 -0.866025 0.5 348.906 4.40918)" fill="#101014" fillOpacity="0.8" shapeRendering="crispEdges"/>
<rect x="-2.98023e-08" y="0.5" width="361.344" height="380.715" rx="13.1734" transform="matrix(0.866025 0.5 -0.866025 0.5 349.339 4.65918)" stroke="url(#paint1_linear_380_5849)" shapeRendering="crispEdges"/>
<g clipPath="url(#clip0_380_5849)">
<path d="M342.986 7.82752C346.255 5.93963 351.557 5.93962 354.827 7.82752L656.785 182.163C660.055 184.051 660.055 187.112 656.785 189L640.996 198.115L327.197 16.9431L342.986 7.82752Z" fill="#17171F"/>
<circle cx="2.70064" cy="2.70064" r="2.41578" transform="matrix(0.866025 0.5 -0.866025 0.5 352.231 16.1621)" fill="#222229" stroke="url(#paint2_linear_380_5849)" strokeWidth="0.569723"/>
<circle cx="2.70064" cy="2.70064" r="2.41578" transform="matrix(0.866025 0.5 -0.866025 0.5 360.856 21.1416)" fill="#222229" stroke="url(#paint3_linear_380_5849)" strokeWidth="0.569723"/>
<circle cx="2.70064" cy="2.70064" r="2.41578" transform="matrix(0.866025 0.5 -0.866025 0.5 369.481 26.1211)" fill="#222229" stroke="url(#paint4_linear_380_5849)" strokeWidth="0.569723"/>
</g>
<path d="M354.58 7.96995L656.538 182.305C659.672 184.115 659.672 187.048 656.538 188.857L640.996 197.83L327.69 16.9431L343.232 7.96995C346.366 6.16072 351.447 6.16072 354.58 7.96995Z" stroke="url(#paint5_linear_380_5849)" strokeWidth="0.569723"/>
<rect x="-1.69791e-08" y="0.284862" width="273.053" height="17.6853" rx="8.84267" transform="matrix(0.866025 0.5 -0.866025 0.5 285.002 67.9227)" fill="#1B1B24" stroke="url(#paint6_linear_380_5849)" strokeWidth="0.569723"/>
<rect x="2.98023e-08" y="-0.5" width="153.41" height="6.46365" rx="3.23182" transform="matrix(0.866025 0.5 -0.866025 0.5 219.375 105.027)" fill="#1B1B24" stroke="url(#paint7_linear_380_5849)"/>
<rect x="2.98023e-08" y="-0.5" width="187.079" height="6.46365" rx="3.23182" transform="matrix(0.866025 0.5 -0.866025 0.5 205.97 113.189)" fill="#1B1B24" stroke="url(#paint8_linear_380_5849)"/>
<g filter="url(#filter2_d_380_5849)">
<rect width="38.7155" height="38.2337" rx="19.1169" transform="matrix(0.866025 0.5 -0.866025 0.5 327.328 31.5225)" fill="#1B1B24"/>
<rect x="-1.69791e-08" y="0.284862" width="38.1458" height="37.664" rx="18.832" transform="matrix(0.866025 0.5 -0.866025 0.5 327.575 31.6649)" stroke="url(#paint9_linear_380_5849)" strokeWidth="0.569723"/>
</g>
<rect x="-1.69791e-08" y="0.284862" width="194.5" height="17.6853" rx="8.84267" transform="matrix(0.866025 0.5 -0.866025 0.5 259.982 82.368)" fill="#1B1B24" stroke="url(#paint10_linear_380_5849)" strokeWidth="0.569723"/>
<g filter="url(#filter3_bd_380_5849)">
<g clipPath="url(#clip1_380_5849)">
<rect width="101" height="101" rx="12" transform="matrix(0.866025 0.5 -0.866025 0.5 117.801 101.262)" fill="#101014" fillOpacity="0.8" shapeRendering="crispEdges"/>
<g clipPath="url(#clip2_380_5849)">
<path d="M118.665 149.095C120.294 150.035 120.403 151.505 118.881 152.384C117.431 153.222 114.87 153.167 113.242 152.226C111.614 151.286 111.518 149.808 112.968 148.971C114.491 148.092 117.037 148.155 118.665 149.095ZM97.0046 153.149C97.4495 154.043 100.472 154.817 105.161 155.012C105.194 154.043 105.316 153.042 105.529 152.043C104.367 151.243 103.275 150.411 102.257 149.551C98.3474 150.877 96.5162 152.281 97.0046 153.149ZM106.451 148.992L106.732 148.3C106.137 148.443 105.543 148.585 105.026 148.755C105.366 149.052 105.768 149.368 106.185 149.693L106.451 148.992ZM117.891 154.325L121.347 153.808L122.242 151.813C122.536 151.096 122.712 150.41 122.935 149.752C122.125 149.234 121.223 148.714 120.275 148.166C119.326 147.618 118.425 147.098 117.528 146.63C116.388 146.759 115.201 146.861 113.958 147.03L110.502 147.547L109.608 149.542C109.313 150.26 109.138 150.945 108.915 151.603C109.725 152.121 110.626 152.642 111.574 153.189C112.523 153.737 113.424 154.257 114.321 154.725C115.461 154.596 116.649 154.495 117.891 154.325ZM123.494 146.307C122.875 146.318 122.225 146.328 121.517 146.372L123.383 147.449C123.458 147.04 123.476 146.665 123.494 146.307ZM108.355 155.048C108.975 155.037 109.624 155.027 110.332 154.984L108.467 153.907C108.391 154.315 108.374 154.69 108.355 155.048ZM134.829 148.197C134.4 147.313 131.377 146.539 126.689 146.343C126.655 147.312 126.533 148.313 126.32 149.312C127.501 150.128 128.607 150.967 129.593 151.804C133.502 150.478 135.333 149.074 134.829 148.197ZM125.399 152.363L125.118 153.055C125.712 152.913 126.307 152.77 126.823 152.6C126.483 152.303 126.082 151.987 125.664 151.663L125.399 152.363ZM137.914 147.784C139.02 149.829 136.068 151.826 131.347 153.42C134.275 156.366 135.37 159.074 132.919 160.489C130.468 161.904 125.777 161.272 120.674 159.582C117.913 162.307 114.456 164.012 110.914 163.373C107.387 162.744 105.634 160.124 105.252 156.839C99.5631 156.619 95.0251 155.607 93.9193 153.562C92.8293 151.526 95.7811 149.53 100.502 147.935C97.5746 144.989 96.4798 142.281 98.9304 140.866C101.381 139.451 106.072 140.083 111.175 141.774C113.936 139.048 117.394 137.343 120.92 137.973C124.462 138.611 126.216 141.231 126.597 144.516C132.286 144.736 136.824 145.749 137.914 147.784ZM123.955 155.314C123.405 156.252 122.792 157.154 122.085 158.019C126.319 159.408 129.489 159.731 130.548 159.12C131.606 158.509 131.046 156.678 128.64 154.234C127.142 154.642 125.581 154.997 123.955 155.314ZM107.894 146.041C108.444 145.103 109.057 144.201 109.764 143.337C105.531 141.947 102.36 141.624 101.302 142.235C100.243 142.846 100.803 144.677 103.21 147.121C104.707 146.713 106.269 146.359 107.894 146.041ZM118.844 156.147L117.631 156.301C118.193 156.542 118.74 156.774 119.254 156.97C119.549 156.672 119.796 156.328 120.042 155.985L118.844 156.147ZM108.417 156.892C108.756 159.599 110.096 161.344 111.628 161.592C113.147 161.883 115.579 160.826 117.876 158.569C116.427 158 114.972 157.361 113.56 156.68C111.829 156.802 110.095 156.873 108.417 156.892ZM113.005 145.208L114.219 145.054C113.656 144.813 113.109 144.581 112.596 144.385C112.3 144.684 112.054 145.027 111.807 145.37L113.005 145.208ZM123.432 144.463C123.094 141.756 121.753 140.011 120.206 139.754C118.703 139.472 116.271 140.529 113.974 142.786C115.463 143.374 116.904 144.005 118.29 144.676C120.02 144.553 121.754 144.482 123.432 144.463Z" fill="#222229"/>
</g>
</g>
<rect x="-2.98023e-08" y="0.5" width="100" height="100" rx="11.5" transform="matrix(0.866025 0.5 -0.866025 0.5 118.234 101.512)" stroke="url(#paint11_linear_380_5849)" shapeRendering="crispEdges"/>
</g>
<g filter="url(#filter4_bd_380_5849)">
<g clipPath="url(#clip3_380_5849)">
<rect width="101" height="101" rx="12" transform="matrix(0.866025 0.5 -0.866025 0.5 227.801 165.409)" fill="#1B1B24"/>
<g clipPath="url(#clip4_380_5849)">
<path d="M244.468 207.604C244.223 207.462 243.947 207.358 243.671 207.274C243.846 207.69 243.729 208.042 243.44 208.35C243.394 208.388 243.371 208.421 243.323 208.458C243.286 208.492 243.243 208.523 243.196 208.552C242.522 208.981 242.196 208.896 241.612 209.042C240.818 209.206 240.309 209.581 240.149 210.027C240.114 210.079 240.09 210.134 240.076 210.19C241.78 208.822 243.938 209.715 244.915 209.545C245.498 209.24 245.369 208.737 245.231 208.361C245.099 208.078 244.834 207.816 244.467 207.605L244.468 207.604ZM246.801 209.48C246.581 209.568 246.655 209.555 246.55 209.605C246.477 209.638 246.396 209.684 246.324 209.716C246.241 209.743 246.159 209.771 246.068 209.792C245.986 209.82 245.896 209.842 245.804 209.863L245.524 209.915C245.464 209.917 245.415 209.927 245.356 209.93L245.232 209.941C245.135 209.949 245.038 209.954 244.939 209.958C244.838 209.956 244.738 209.963 244.635 209.95L244.628 209.955C244.535 209.948 244.434 209.945 244.331 209.933C244.018 209.901 243.712 209.836 243.397 209.794C243.297 209.781 243.201 209.764 243.101 209.762C243.003 209.75 242.904 209.742 242.805 209.74C242.696 209.732 242.604 209.735 242.495 209.737C242.403 209.74 242.294 209.742 242.202 209.754C242.103 209.76 242.006 209.769 241.91 209.781C241.809 209.798 241.728 209.815 241.629 209.832C241.537 209.854 241.456 209.871 241.372 209.898C241.283 209.923 241.195 209.95 241.11 209.979C241.069 209.993 241.029 210.016 240.989 210.029C240.947 210.042 240.914 210.061 240.873 210.075C240.809 210.112 240.729 210.149 240.664 210.186C240.616 210.214 240.568 210.242 240.528 210.274C240.463 210.312 240.407 210.354 240.354 210.406C240.297 210.449 240.249 210.496 240.201 210.543C240.166 210.596 240.119 210.643 240.08 210.695C240.059 210.728 240.043 210.767 240.029 210.796L238.727 209.216C238.474 208.968 238.22 208.729 237.95 208.489L237.518 208.1C237.088 207.741 236.625 207.39 236.138 207.053C236.12 207.042 236.119 207.033 236.102 207.023C235.28 206.453 234.381 205.921 233.412 205.433C232.845 205.142 232.246 204.87 231.63 204.608C231.169 204.414 230.698 204.229 230.218 204.054L229.727 203.881C229.549 203.834 229.368 203.794 229.197 203.752L228.786 203.654C228.761 203.649 228.744 203.639 228.728 203.639C228.599 203.61 228.488 203.584 228.369 203.562C228.208 203.522 228.046 203.488 227.881 203.457C227.797 203.436 227.703 203.419 227.625 203.402C227.585 203.396 227.546 203.389 227.508 203.38C227.387 203.358 227.268 203.336 227.157 203.318C227.048 203.297 226.937 203.28 226.826 203.267C226.725 203.253 226.631 203.237 226.539 203.23C226.521 203.23 226.511 203.224 226.495 203.224C226.41 203.212 226.309 203.201 226.215 203.193L226.182 203.192L225.954 203.171C225.928 203.167 225.894 203.165 225.87 203.16C225.793 203.153 225.709 203.151 225.634 203.144C225.609 203.149 225.581 203.143 225.566 203.142C225.464 203.14 225.372 203.133 225.271 203.131C225.261 203.125 225.253 203.13 225.237 203.129C225.139 203.123 225.04 203.119 224.942 203.118C224.925 203.117 224.917 203.121 224.908 203.116C224.821 203.114 224.734 203.113 224.647 203.115C224.614 203.115 224.573 203.109 224.539 203.107C224.441 203.109 224.342 203.109 224.243 203.104C224.219 203.109 224.193 203.104 224.17 203.107C224.035 203.104 223.909 203.106 223.773 203.103L223.724 203.102C223.445 203.099 223.16 203.092 222.88 203.071C222.593 203.055 222.307 203.027 222.034 202.992C221.479 202.925 220.933 202.822 220.408 202.684C220.151 202.62 219.893 202.545 219.644 202.467C219.203 202.296 218.689 202.156 218.34 201.983C218.269 201.943 218.175 201.907 218.097 201.87L217.829 201.771L217.545 201.691C217.45 201.665 217.348 201.643 217.247 201.621C217.145 201.609 217.043 201.587 216.94 201.575C216.836 201.562 216.732 201.555 216.627 201.553C216.527 201.54 216.408 201.537 216.307 201.535C216.199 201.537 216.099 201.534 215.998 201.542C215.889 201.554 215.78 201.556 215.68 201.573C215.575 201.58 215.473 201.592 215.372 201.608C215.264 201.63 215.164 201.647 215.067 201.673C214.975 201.695 214.877 201.723 214.779 201.748C214.697 201.776 214.613 201.803 214.541 201.836C214.535 201.84 214.516 201.84 214.508 201.844C214.418 201.876 214.322 201.932 214.264 201.954C214.198 201.982 214.143 202.004 214.086 202.037C213.944 202.117 213.842 202.218 213.788 202.33L213.78 202.335C213.759 202.378 213.745 202.427 213.732 202.475C213.718 202.522 213.707 202.571 213.702 202.624C213.705 202.672 213.708 202.731 213.722 202.785C213.726 202.842 213.738 202.899 213.759 202.955C213.801 203.175 213.798 203.237 213.941 203.468C213.96 203.508 213.988 203.542 214.018 203.588C214.026 203.592 214.027 203.602 214.035 203.607C214.018 203.616 214.011 203.621 214.003 203.635C213.891 203.723 213.799 203.82 213.73 203.924C213.71 203.968 213.679 204.005 213.656 204.048C213.649 204.063 213.642 204.077 213.644 204.088C213.613 204.145 213.593 204.197 213.57 204.25L213.533 204.424C213.528 204.477 213.526 204.54 213.529 204.599C213.534 204.657 213.546 204.71 213.56 204.774C213.56 204.774 213.561 204.783 213.569 204.788C213.581 204.842 213.594 204.895 213.615 204.945C213.637 205.003 213.666 205.06 213.704 205.116C213.732 205.17 213.77 205.23 213.815 205.284C213.848 205.33 213.888 205.375 213.935 205.418C213.937 205.428 213.945 205.433 213.955 205.447C213.981 205.473 214.017 205.503 214.043 205.527C213.583 205.763 213.165 205.995 213.09 206.12C213.007 206.258 213.885 206.197 214.834 206.094C214.227 206.386 213.539 206.742 213.432 206.903C213.328 207.076 214.482 207.016 215.632 206.881C223.176 209.712 224.911 215.268 219.935 218.83C220.692 218.262 220.005 217.309 219.349 217.07C218.491 217.261 217.278 217.444 216.083 217.304C216.677 217.031 217.197 216.702 217.606 216.323C216.668 216.637 215.604 216.823 214.488 216.866C213.6 216.417 213.136 215.722 213.253 215.147C213.241 215.113 213.28 215.081 213.286 215.046C213.316 214.999 213.346 214.951 213.384 214.908C213.412 214.862 213.451 214.819 213.5 214.78C213.549 214.742 213.605 214.71 213.67 214.673L213.791 214.603C213.858 214.576 213.929 214.552 214.003 214.531C214.078 214.509 214.15 214.487 214.235 214.469C214.324 214.457 214.408 214.439 214.508 214.432C215.044 214.295 215.358 214.113 215.271 213.85C215.25 213.801 215.221 213.753 215.184 213.707C215.158 213.682 215.13 213.648 215.104 213.622L215.056 213.568C215.014 213.523 214.966 213.48 214.912 213.439C214.869 213.395 214.815 213.354 214.753 213.318C214.698 213.276 214.639 213.236 214.576 213.198C214.532 213.172 214.48 213.152 214.436 213.126C214.371 213.088 214.297 213.055 214.218 213.028C214.149 212.998 214.08 212.967 214.002 212.94C213.924 212.913 213.844 212.888 213.761 212.867C213.677 212.845 213.6 212.829 213.513 212.808C213.437 212.791 213.352 212.779 213.265 212.758C209.996 212.283 208.352 214.643 208.916 215.927C208.301 215.674 207.662 215.425 207.408 215.4L207.374 215.398C207.543 215.737 207.76 216.068 208.019 216.395C208.412 216.817 208.857 217.249 209.055 217.438L209.047 217.443C209.638 217.942 210.332 218.399 211.114 218.804C215.252 220.905 221.152 221.178 225.306 219.449L225.15 219.6C225.031 219.699 224.912 219.807 224.778 219.906L224.77 219.91C224.715 219.962 224.65 220.009 224.595 220.052L224.564 220.07C224.5 220.117 224.436 220.164 224.371 220.201C224.291 220.257 224.211 220.313 224.123 220.364L223.993 220.439C223.954 220.462 223.916 220.495 223.875 220.518C223.826 220.547 223.768 220.569 223.72 220.597L223.607 220.662C223.551 220.694 223.495 220.717 223.437 220.75C223.405 220.769 223.372 220.787 223.325 220.805C223.268 220.838 223.203 220.865 223.138 220.903C223.107 220.911 223.082 220.926 223.059 220.939L222.844 221.03C222.82 221.044 222.796 221.058 222.765 221.068C222.674 221.109 222.584 221.141 222.495 221.183L222.48 221.192L222.201 221.292L222.178 221.305L221.909 221.4C221.9 221.406 221.873 221.41 221.866 221.413C221.776 221.447 221.683 221.477 221.587 221.504L221.564 221.518C221.456 221.549 221.358 221.576 221.267 221.607C221.251 221.607 221.243 221.611 221.243 221.611L220.922 221.705C220.807 221.732 220.708 221.758 220.592 221.785C220.476 221.811 220.37 221.842 220.262 221.864C220.146 221.89 220.039 221.911 219.923 221.938L219.913 221.933C219.808 221.954 219.69 221.98 219.575 221.997C219.548 222.004 219.521 222.009 219.492 222.014C219.476 222.013 219.467 222.019 219.451 222.018C217.804 222.299 216.033 222.346 214.279 222.155C214.168 222.138 214.049 222.126 213.93 222.113C213.898 222.112 213.864 222.102 213.83 222.1C213.725 222.089 213.62 222.075 213.516 222.06L213.493 222.102L213.503 222.108L213.919 222.293L213.928 222.298C214.188 222.411 214.457 222.519 214.725 222.627C214.795 222.659 214.881 222.689 214.959 222.716L215.107 222.773C215.176 222.804 215.252 222.83 215.322 222.861C215.392 222.882 215.453 222.907 215.52 222.929C216.593 223.323 217.709 223.662 218.839 223.953C215.666 224.156 212.385 223.883 209.305 223.161C210.381 223.707 211.542 224.202 212.774 224.615C217.252 226.102 222.414 226.561 227.148 225.894C224.923 226.762 222.348 227.317 219.61 227.521C220.975 227.715 222.361 227.822 223.741 227.842C227.587 227.89 231.265 227.256 234.281 226.025C233.305 226.931 232.081 227.74 230.655 228.412C245.098 227.39 247.694 219.182 247.476 216.5C247.484 216.485 247.484 216.476 247.499 216.467C247.483 216.466 247.483 216.466 247.475 216.471C247.483 216.466 247.483 216.466 247.481 216.456C247.385 216.512 247.28 216.562 247.174 216.613C246.969 216.704 246.76 216.79 246.547 216.874C246.328 216.952 246.096 217.023 245.866 217.096C245.635 217.157 245.389 217.219 245.139 217.27C244.892 217.32 244.641 217.364 244.386 217.402C243.874 217.471 243.349 217.514 242.817 217.528C242.541 217.535 242.272 217.529 242.001 217.522C241.848 217.514 241.696 217.504 241.544 217.491L241.182 217.468C240.912 217.443 240.643 217.409 240.378 217.365C240.111 217.325 239.846 217.278 239.585 217.224C239.321 217.164 239.064 217.1 238.807 217.036C238.301 216.895 237.816 216.727 237.359 216.534C237.124 216.436 236.907 216.329 236.696 216.227C236.547 216.151 236.402 216.073 236.26 215.993C236.063 215.876 235.874 215.755 235.695 215.629C235.509 215.505 235.336 215.374 235.179 215.238C235.013 215.104 234.862 214.964 234.728 214.82L234.718 214.814C234.929 214.917 235.137 215.019 235.363 215.112C235.822 215.304 236.306 215.472 236.812 215.614C237.069 215.687 237.334 215.747 237.59 215.802C237.855 215.862 238.11 215.907 238.382 215.953C238.653 215.99 238.924 216.025 239.195 216.051C239.467 216.077 239.736 216.093 240.005 216.1C240.275 216.116 240.543 216.113 240.812 216.11C241.088 216.103 241.357 216.09 241.614 216.072C241.657 216.068 241.708 216.06 241.749 216.057C241.966 216.032 242.183 216.009 242.391 215.98C242.905 215.907 243.4 215.804 243.87 215.672C244.102 215.611 244.322 215.534 244.544 215.457C244.764 215.371 244.976 215.289 245.171 215.196C245.372 215.099 245.577 215.003 245.753 214.901C245.883 214.826 246.002 214.746 246.122 214.667C246.285 214.552 246.441 214.435 246.59 214.314C246.738 214.19 246.874 214.061 246.999 213.928C247.106 213.795 247.223 213.657 247.321 213.518C247.419 213.38 247.501 213.232 247.575 213.089C247.638 212.939 247.703 212.791 247.751 212.642C247.79 212.49 247.82 212.338 247.842 212.184C247.848 212.028 247.854 211.873 247.85 211.713C247.845 211.631 247.836 211.548 247.823 211.465C247.709 211.074 247.563 210.684 247.391 210.305C247.364 210.255 247.333 210.206 247.296 210.157C247.182 209.923 247.016 209.694 246.801 209.48Z" fill="#9898A3"/>
</g>
</g>
<rect x="-2.98023e-08" y="0.5" width="100" height="100" rx="11.5" transform="matrix(0.866025 0.5 -0.866025 0.5 228.234 165.659)" stroke="url(#paint12_linear_380_5849)"/>
</g>
<g filter="url(#filter5_bd_380_5849)">
<rect width="101" height="101" rx="12" transform="matrix(0.866025 0.5 -0.866025 0.5 340.519 226.012)" fill="#101014" fillOpacity="0.8" shapeRendering="crispEdges"/>
<rect x="-2.98023e-08" y="0.5" width="100" height="100" rx="11.5" transform="matrix(0.866025 0.5 -0.866025 0.5 340.952 226.262)" stroke="url(#paint13_linear_380_5849)" shapeRendering="crispEdges"/>
<g clipPath="url(#clip5_380_5849)">
<path d="M345.144 289.068L357.192 269.732C357.339 269.493 357.371 269.236 357.286 268.988C357.2 268.739 357 268.509 356.706 268.321C356.417 268.13 356.042 267.988 355.622 267.911C355.203 267.834 354.755 267.825 354.328 267.885L323.864 272.046C323.403 272.108 322.982 272.244 322.65 272.44C322.319 272.635 322.091 272.881 321.993 273.148L318.874 281.514C318.758 281.829 318.822 282.157 319.056 282.449C319.29 282.742 319.682 282.982 320.172 283.136L341.552 289.844C341.873 289.945 342.228 290.006 342.593 290.021C342.958 290.037 343.324 290.007 343.668 289.933C344.008 289.86 344.317 289.744 344.572 289.595C344.827 289.445 345.023 289.266 345.146 289.068L345.144 289.068ZM341.767 288.246L323.627 282.553C323.073 282.38 323.033 281.929 323.553 281.732L352.505 270.792C353.047 270.587 353.737 270.903 353.518 271.256L343.114 287.954C343.067 288.029 342.993 288.096 342.897 288.152C342.801 288.208 342.685 288.252 342.557 288.279C342.429 288.307 342.292 288.318 342.155 288.313C342.019 288.307 341.886 288.284 341.767 288.246L341.767 288.246Z" fill="#222229"/>
</g>
</g>
</g>
<rect x="-2.98023e-08" y="0.5" width="92.5695" height="43.0468" rx="7.5" transform="matrix(0.866025 0.5 -0.866025 0.5 712.135 239.274)" fill="#101014" fillOpacity="0.8"/>
<rect x="-2.98023e-08" y="0.5" width="92.5695" height="43.0468" rx="7.5" transform="matrix(0.866025 0.5 -0.866025 0.5 712.135 239.274)" stroke="url(#paint14_linear_380_5849)"/>
<g clipPath="url(#clip6_380_5849)">
<rect width="94.2283" height="44.0468" rx="8" transform="matrix(0.866025 0.5 -0.866025 0.5 712.478 226.012)" fill="#101014" fillOpacity="0.8"/>
<path d="M700.919 247.637L711.831 241.337L713.827 242.489L711.27 249.887L718.955 245.45L720.951 246.602L710.039 252.902L708.043 251.75L710.584 244.361L702.915 248.789L700.919 247.637ZM715.63 256.347C714.882 255.915 714.378 255.426 714.118 254.88C713.869 254.34 713.869 253.794 714.118 253.242C714.388 252.69 714.924 252.183 715.724 251.721C716.524 251.259 717.402 250.956 718.358 250.812C719.325 250.662 720.276 250.659 721.211 250.803C722.157 250.953 723.004 251.244 723.752 251.676C724.49 252.102 724.983 252.585 725.233 253.125C725.493 253.671 725.487 254.22 725.217 254.772C724.968 255.324 724.443 255.831 723.643 256.293C722.843 256.755 721.959 257.061 720.993 257.211C720.047 257.361 719.101 257.361 718.156 257.211C717.21 257.061 716.368 256.773 715.63 256.347ZM717.361 255.348C717.88 255.648 718.525 255.798 719.294 255.798C720.073 255.792 720.847 255.567 721.616 255.123C722.385 254.679 722.77 254.235 722.77 253.791C722.78 253.341 722.531 252.969 722.022 252.675C721.492 252.369 720.837 252.219 720.057 252.225C719.299 252.231 718.535 252.456 717.766 252.9C716.997 253.344 716.602 253.788 716.581 254.232C716.581 254.676 716.841 255.048 717.361 255.348ZM724.928 261.715C724.201 261.295 723.728 260.818 723.509 260.284C723.291 259.75 723.322 259.21 723.603 258.664C723.884 258.118 724.414 257.62 725.193 257.17C725.972 256.72 726.83 256.417 727.765 256.261C728.711 256.099 729.641 256.084 730.555 256.216C731.48 256.342 732.307 256.615 733.034 257.035C733.616 257.371 734.016 257.728 734.234 258.106C734.453 258.484 734.499 258.865 734.375 259.249L738.926 256.621L740.922 257.773L729.698 264.253L727.921 263.227L728.809 262.462C728.217 262.516 727.583 262.498 726.908 262.408C726.243 262.324 725.583 262.093 724.928 261.715ZM727.095 260.95C727.739 261.322 728.477 261.502 729.308 261.49C730.16 261.478 730.924 261.277 731.6 260.887C732.275 260.497 732.618 260.059 732.629 259.573C732.66 259.087 732.353 258.658 731.709 258.286C731.075 257.92 730.337 257.74 729.495 257.746C728.654 257.752 727.895 257.95 727.219 258.34C726.544 258.73 726.196 259.171 726.175 259.663C726.154 260.155 726.461 260.584 727.095 260.95ZM735.3 267.703C734.52 267.253 733.995 266.758 733.725 266.218C733.455 265.678 733.45 265.135 733.71 264.589C733.969 264.043 734.494 263.542 735.284 263.086C736.084 262.624 736.962 262.309 737.919 262.141C738.885 261.979 739.836 261.97 740.771 262.114C741.727 262.258 742.611 262.564 743.421 263.032C744.18 263.47 744.684 263.953 744.933 264.481C745.183 265.009 745.178 265.534 744.918 266.056C744.679 266.578 744.206 267.043 743.499 267.451C743.385 267.517 743.26 267.583 743.125 267.649C743 267.721 742.865 267.793 742.72 267.865L736.843 264.472C736.282 264.844 736.017 265.237 736.048 265.651C736.089 266.071 736.38 266.437 736.921 266.749C737.326 266.983 737.752 267.127 738.199 267.181C738.667 267.235 739.114 267.217 739.54 267.127L741.566 268.297C740.932 268.495 740.241 268.612 739.493 268.648C738.765 268.684 738.038 268.624 737.311 268.468C736.593 268.318 735.923 268.063 735.3 267.703ZM741.8 263.968C741.312 263.686 740.74 263.518 740.085 263.464C739.441 263.404 738.786 263.506 738.121 263.77L741.972 265.993C742.45 265.681 742.668 265.339 742.626 264.967C742.585 264.595 742.309 264.262 741.8 263.968ZM743.759 272.587C742.699 271.975 742.143 271.312 742.091 270.598C742.06 269.884 742.595 269.209 743.696 268.573L745.692 269.725C745.193 270.025 744.907 270.328 744.834 270.634C744.762 270.94 744.98 271.24 745.489 271.534C745.967 271.81 746.456 271.93 746.954 271.894C747.464 271.852 747.952 271.696 748.42 271.426L756.183 266.944L758.178 268.096L750.415 272.578C749.345 273.196 748.217 273.499 747.032 273.487C745.868 273.475 744.777 273.175 743.759 272.587ZM752.352 277.548C751.666 277.152 751.172 276.741 750.871 276.315C750.58 275.883 750.476 275.463 750.559 275.055C750.642 274.647 750.912 274.275 751.37 273.939L753.38 275.1C753.141 275.31 753.048 275.556 753.1 275.838C753.173 276.12 753.427 276.387 753.864 276.639C754.3 276.891 754.705 277.023 755.08 277.035C755.464 277.053 755.771 276.996 755.999 276.864C756.332 276.672 756.41 276.459 756.233 276.225C756.067 275.985 755.781 275.682 755.376 275.316C755.116 275.082 754.867 274.836 754.628 274.578C754.388 274.32 754.201 274.062 754.066 273.804C753.952 273.546 753.931 273.294 754.004 273.048C754.087 272.796 754.316 272.562 754.69 272.346C755.376 271.95 756.223 271.773 757.231 271.815C758.249 271.863 759.252 272.172 760.239 272.742C761.154 273.27 761.668 273.813 761.783 274.371C761.907 274.935 761.648 275.463 761.003 275.955L759.117 274.866C759.574 274.47 759.429 274.056 758.681 273.624C758.306 273.408 757.943 273.282 757.589 273.246C757.246 273.216 756.966 273.264 756.748 273.39C756.519 273.522 756.488 273.714 756.654 273.966C756.82 274.218 757.096 274.521 757.48 274.875C757.896 275.259 758.249 275.625 758.54 275.973C758.852 276.321 758.992 276.66 758.961 276.99C758.94 277.314 758.655 277.635 758.104 277.953C757.636 278.235 757.08 278.412 756.436 278.484C755.791 278.556 755.116 278.514 754.409 278.358C753.703 278.202 753.017 277.932 752.352 277.548Z" fill="white"/>
</g>
<rect x="-2.98023e-08" y="0.5" width="93.2283" height="43.0468" rx="7.5" transform="matrix(0.866025 0.5 -0.866025 0.5 712.911 226.262)" stroke="url(#paint15_linear_380_5849)"/>
<path d="M557.653 244.296L654.385 304.68C659.434 307.831 665.814 307.92 670.949 304.91L709.695 282.196" stroke="url(#paint16_linear_380_5849)"/>
<path d="M535.999 112.501L583.097 84.8906" stroke="url(#paint17_linear_380_5849)"/>
<rect x="-2.98023e-08" y="0.5" width="92.5695" height="43.0468" rx="7.5" transform="matrix(0.866025 0.5 -0.866025 0.5 570.579 38.25)" fill="#101014" fillOpacity="0.8"/>
<rect x="-2.98023e-08" y="0.5" width="92.5695" height="43.0468" rx="7.5" transform="matrix(0.866025 0.5 -0.866025 0.5 570.579 38.25)" stroke="url(#paint18_linear_380_5849)"/>
<g clipPath="url(#clip7_380_5849)">
<rect width="94.2283" height="44.0468" rx="8" transform="matrix(0.866025 0.5 -0.866025 0.5 569.146 25)" fill="#101014" fillOpacity="0.8"/>
<path d="M560.524 48.612L571.436 42.312L573.431 43.464L570.875 50.862L578.56 46.425L580.555 47.577L569.643 53.877L567.648 52.725L570.189 45.336L562.519 49.764L560.524 48.612ZM575.282 57.3483C574.502 56.8983 573.977 56.4033 573.707 55.8633C573.437 55.3233 573.432 54.7803 573.692 54.2343C573.951 53.6883 574.476 53.1873 575.266 52.7313C576.066 52.2693 576.944 51.9543 577.9 51.7863C578.867 51.6243 579.818 51.6153 580.753 51.7593C581.709 51.9033 582.593 52.2093 583.403 52.6773C584.162 53.1153 584.666 53.5983 584.915 54.1263C585.165 54.6543 585.159 55.1793 584.9 55.7013C584.661 56.2233 584.188 56.6883 583.481 57.0963C583.367 57.1623 583.242 57.2283 583.107 57.2943C582.982 57.3663 582.847 57.4383 582.702 57.5103L576.825 54.1173C576.264 54.4893 575.999 54.8823 576.03 55.2963C576.071 55.7163 576.362 56.0823 576.903 56.3943C577.308 56.6283 577.734 56.7723 578.181 56.8263C578.649 56.8803 579.096 56.8623 579.522 56.7723L581.548 57.9423C580.914 58.1403 580.223 58.2573 579.475 58.2933C578.747 58.3293 578.02 58.2693 577.292 58.1133C576.575 57.9633 575.905 57.7083 575.282 57.3483ZM581.782 53.6133C581.294 53.3313 580.722 53.1633 580.067 53.1093C579.423 53.0493 578.768 53.1513 578.103 53.4153L581.953 55.6383C582.431 55.3263 582.65 54.9843 582.608 54.6123C582.567 54.2403 582.291 53.9073 581.782 53.6133ZM579.763 59.7196L586.435 59.1076L587.495 55.2556L589.63 56.4886L588.851 59.2066L593.543 58.7476L595.694 59.9896L589.007 60.5926L587.962 64.4536L585.811 63.2116L586.606 60.5026L581.898 60.9526L579.763 59.7196ZM592.679 67.1765C591.868 66.7085 591.416 66.2195 591.322 65.7095C591.229 65.1995 591.686 64.6535 592.694 64.0715L596.061 62.1275L594.736 61.3625L596.404 60.3995L597.729 61.1645L600.036 60.1025L601.798 61.1195L599.725 62.3165L601.813 63.5225L600.146 64.4855L598.057 63.2795L594.674 65.2325C594.3 65.4485 594.118 65.6435 594.128 65.8175C594.16 65.9915 594.373 66.1925 594.767 66.4205L595.734 66.9785L594.035 67.9595L592.679 67.1765ZM598.507 70.7576C597.447 70.1456 596.891 69.4826 596.839 68.7686C596.808 68.0546 597.343 67.3796 598.445 66.7436L600.44 67.8956C599.941 68.1956 599.655 68.4986 599.583 68.8046C599.51 69.1106 599.728 69.4106 600.237 69.7046C600.716 69.9806 601.204 70.1006 601.703 70.0646C602.212 70.0226 602.7 69.8666 603.168 69.5966L610.931 65.1146L612.926 66.2666L605.163 70.7486C604.093 71.3666 602.965 71.6696 601.781 71.6576C600.617 71.6456 599.526 71.3456 598.507 70.7576ZM607.1 75.7187C606.414 75.3227 605.92 74.9117 605.619 74.4857C605.328 74.0537 605.224 73.6337 605.307 73.2257C605.39 72.8177 605.661 72.4457 606.118 72.1097L608.129 73.2707C607.89 73.4807 607.796 73.7267 607.848 74.0087C607.921 74.2907 608.176 74.5577 608.612 74.8097C609.048 75.0617 609.454 75.1937 609.828 75.2057C610.212 75.2237 610.519 75.1667 610.748 75.0347C611.08 74.8427 611.158 74.6297 610.981 74.3957C610.815 74.1557 610.529 73.8527 610.124 73.4867C609.864 73.2527 609.615 73.0067 609.376 72.7487C609.137 72.4907 608.95 72.2327 608.815 71.9747C608.7 71.7167 608.68 71.4647 608.752 71.2187C608.835 70.9667 609.064 70.7327 609.438 70.5167C610.124 70.1207 610.971 69.9437 611.979 69.9857C612.998 70.0337 614 70.3427 614.988 70.9127C615.902 71.4407 616.417 71.9837 616.531 72.5417C616.656 73.1057 616.396 73.6337 615.752 74.1257L613.865 73.0367C614.323 72.6407 614.177 72.2267 613.429 71.7947C613.055 71.5787 612.691 71.4527 612.338 71.4167C611.995 71.3867 611.714 71.4347 611.496 71.5607C611.267 71.6927 611.236 71.8847 611.402 72.1367C611.569 72.3887 611.844 72.6917 612.229 73.0457C612.644 73.4297 612.998 73.7957 613.289 74.1437C613.6 74.4917 613.741 74.8307 613.709 75.1607C613.689 75.4847 613.403 75.8057 612.852 76.1237C612.384 76.4057 611.828 76.5827 611.184 76.6547C610.54 76.7267 609.864 76.6847 609.158 76.5287C608.451 76.3727 607.765 76.1027 607.1 75.7187Z" fill="white"/>
</g>
<rect x="-2.98023e-08" y="0.5" width="93.2283" height="43.0468" rx="7.5" transform="matrix(0.866025 0.5 -0.866025 0.5 569.579 25.25)" stroke="url(#paint19_linear_380_5849)"/>
<path d="M80 123L38.0947 98.3414C26.539 91.5416 26.7303 74.7647 38.438 68.2302L65.7252 53" stroke="url(#paint20_linear_380_5849)" strokeWidth="1.08466"/>
<rect x="-2.98023e-08" y="0.5" width="92.5695" height="43.0468" rx="7.5" transform="matrix(0.866025 0.5 -0.866025 0.5 80.5785 17.2627)" fill="#101014" fillOpacity="0.8"/>
<rect x="-2.98023e-08" y="0.5" width="92.5695" height="43.0468" rx="7.5" transform="matrix(0.866025 0.5 -0.866025 0.5 80.5785 17.2627)" stroke="url(#paint21_linear_380_5849)"/>
<g clipPath="url(#clip8_380_5849)">
<rect width="94.2283" height="44.0468" rx="8" transform="matrix(0.866025 0.5 -0.866025 0.5 80.9209 4)" fill="#101014" fillOpacity="0.8"/>
<path d="M69.3628 25.6257L80.2747 19.3257L84.2809 21.6387C85.1539 22.1427 85.7203 22.6437 85.9801 23.1417C86.2607 23.6397 86.2867 24.1167 86.058 24.5727C85.8398 25.0227 85.4241 25.4247 84.8109 25.7787C84.1458 26.1627 83.3612 26.4117 82.4571 26.5257C81.5634 26.6457 80.6229 26.5647 79.6356 26.2827L77.3285 30.2247L75.037 28.9017L77.3129 25.2477L75.6605 24.2937L71.3581 26.7777L69.3628 25.6257ZM77.1258 23.4477L79.012 24.5367C79.6772 24.9207 80.3267 25.1097 80.9606 25.1037C81.5945 25.0977 82.1765 24.9417 82.7065 24.6357C83.2261 24.3357 83.4859 24.0057 83.4859 23.6457C83.4963 23.2917 83.1586 22.9167 82.4727 22.5207L80.6021 21.4407L77.1258 23.4477ZM82.1262 33.2106C81.3468 32.7606 80.822 32.2656 80.5518 31.7256C80.2816 31.1856 80.2764 30.6426 80.5362 30.0966C80.796 29.5506 81.3208 29.0496 82.1106 28.5936C82.9108 28.1316 83.789 27.8166 84.7451 27.6486C85.7115 27.4866 86.6624 27.4776 87.5978 27.6216C88.5538 27.7656 89.4372 28.0716 90.2478 28.5396C91.0064 28.9776 91.5105 29.4606 91.7599 29.9886C92.0093 30.5166 92.0041 31.0416 91.7443 31.5636C91.5053 32.0856 91.0324 32.5506 90.3257 32.9586C90.2114 33.0246 90.0867 33.0906 89.9516 33.1566C89.8269 33.2286 89.6918 33.3006 89.5463 33.3726L83.6695 29.9796C83.1083 30.3516 82.8433 30.7446 82.8744 31.1586C82.916 31.5786 83.207 31.9446 83.7474 32.2566C84.1527 32.4906 84.5788 32.6346 85.0257 32.6886C85.4933 32.7426 85.9402 32.7246 86.3663 32.6346L88.3928 33.8046C87.7588 34.0026 87.0677 34.1196 86.3195 34.1556C85.592 34.1916 84.8646 34.1316 84.1371 33.9756C83.42 33.8256 82.7497 33.5706 82.1262 33.2106ZM88.6266 29.4756C88.1382 29.1936 87.5666 29.0256 86.9119 28.9716C86.2675 28.9116 85.6128 29.0136 84.9477 29.2776L88.7981 31.5006C89.2761 31.1886 89.4943 30.8466 89.4528 30.4746C89.4112 30.1026 89.1358 29.7696 88.6266 29.4756ZM90.3515 37.9595C89.6864 37.5755 89.2448 37.2005 89.0265 36.8345C88.8187 36.4625 88.7875 36.1145 88.933 35.7905C89.0785 35.4665 89.3643 35.1815 89.7904 34.9355C90.5074 34.5215 91.37 34.3475 92.378 34.4135C93.3861 34.4795 94.4513 34.8365 95.5737 35.4845L97.5378 36.6185L97.7249 36.5105C98.2549 36.2045 98.4939 35.8925 98.442 35.5745C98.39 35.2565 98.1406 34.9685 97.6937 34.7105C97.2884 34.4765 96.8363 34.3295 96.3375 34.2695C95.8491 34.2035 95.3814 34.2575 94.9346 34.4315L92.986 33.3065C93.5991 33.0125 94.2746 32.8385 95.0125 32.7845C95.7607 32.7365 96.5038 32.7995 97.2416 32.9735C97.9899 33.1415 98.6862 33.4115 99.3305 33.7835C100.432 34.4195 101.024 35.0795 101.108 35.7635C101.191 36.4475 100.728 37.0805 99.7202 37.6625L94.9657 40.4075L93.2666 39.4265L94.3266 38.5985C93.6823 38.7065 93.0172 38.7185 92.3313 38.6345C91.6558 38.5565 90.9959 38.3315 90.3515 37.9595ZM92.3625 37.3205C92.934 37.6505 93.5628 37.7975 94.2487 37.7615C94.9449 37.7315 95.6101 37.5815 96.244 37.3115L94.5448 36.3305C94.0148 36.0245 93.5368 35.8625 93.1107 35.8445C92.695 35.8205 92.3469 35.8895 92.0663 36.0515C91.7649 36.2255 91.6454 36.4265 91.7077 36.6545C91.7701 36.8825 91.9883 37.1045 92.3625 37.3205ZM100.471 43.8019C99.681 43.3459 99.1561 42.8449 98.8963 42.2989C98.6365 41.7529 98.6365 41.2009 98.8963 40.6429C99.1665 40.0909 99.6965 39.5869 100.486 39.1309C101.276 38.6749 102.149 38.3689 103.105 38.2129C104.072 38.0629 105.028 38.0629 105.973 38.2129C106.919 38.3629 107.787 38.6659 108.577 39.1219C109.564 39.6919 110.136 40.3219 110.292 41.0119C110.458 41.6959 110.182 42.3529 109.465 42.9829L107.361 41.7679C107.631 41.4919 107.714 41.2039 107.61 40.9039C107.527 40.6039 107.278 40.3339 106.862 40.0939C106.311 39.7759 105.636 39.6259 104.836 39.6439C104.035 39.6619 103.266 39.8839 102.528 40.3099C101.791 40.7359 101.406 41.1799 101.375 41.6419C101.344 42.1039 101.604 42.4939 102.154 42.8119C102.57 43.0519 103.032 43.1989 103.542 43.2529C104.061 43.3129 104.565 43.2619 105.054 43.0999L107.158 44.3149C106.098 44.7109 104.965 44.8669 103.76 44.7829C102.554 44.6989 101.458 44.3719 100.471 43.8019ZM109.555 48.8308C108.745 48.3628 108.293 47.8738 108.199 47.3638C108.106 46.8538 108.563 46.3078 109.571 45.7258L112.938 43.7818L111.613 43.0168L113.281 42.0538L114.606 42.8188L116.913 41.7568L118.675 42.7738L116.601 43.9708L118.69 45.1768L117.022 46.1398L114.933 44.9338L111.551 46.8868C111.177 47.1028 110.995 47.2978 111.005 47.4718C111.036 47.6458 111.249 47.8468 111.644 48.0748L112.611 48.6328L110.912 49.6138L109.555 48.8308ZM115.384 52.4119C114.324 51.7999 113.768 51.1369 113.716 50.4229C113.685 49.7089 114.22 49.0339 115.321 48.3979L117.317 49.5499C116.818 49.8499 116.532 50.1529 116.459 50.4589C116.387 50.7649 116.605 51.0649 117.114 51.3589C117.592 51.6349 118.081 51.7549 118.579 51.7189C119.089 51.6769 119.577 51.5209 120.045 51.2509L127.808 46.7689L129.803 47.9209L122.04 52.4029C120.97 53.0209 119.842 53.3239 118.657 53.3119C117.493 53.2999 116.402 52.9999 115.384 52.4119ZM123.977 57.373C123.291 56.977 122.797 56.566 122.496 56.14C122.205 55.708 122.101 55.288 122.184 54.88C122.267 54.472 122.537 54.1 122.995 53.764L125.005 54.925C124.766 55.135 124.673 55.381 124.725 55.663C124.798 55.945 125.052 56.212 125.489 56.464C125.925 56.716 126.33 56.848 126.705 56.86C127.089 56.878 127.396 56.821 127.624 56.689C127.957 56.497 128.035 56.284 127.858 56.05C127.692 55.81 127.406 55.507 127.001 55.141C126.741 54.907 126.492 54.661 126.252 54.403C126.013 54.145 125.826 53.887 125.691 53.629C125.577 53.371 125.556 53.119 125.629 52.873C125.712 52.621 125.941 52.387 126.315 52.171C127.001 51.775 127.848 51.598 128.856 51.64C129.874 51.688 130.877 51.997 131.864 52.567C132.779 53.095 133.293 53.638 133.408 54.196C133.532 54.76 133.272 55.288 132.628 55.78L130.742 54.691C131.199 54.295 131.054 53.881 130.305 53.449C129.931 53.233 129.568 53.107 129.214 53.071C128.871 53.041 128.591 53.089 128.373 53.215C128.144 53.347 128.113 53.539 128.279 53.791C128.445 54.043 128.721 54.346 129.105 54.7C129.521 55.084 129.874 55.45 130.165 55.798C130.477 56.146 130.617 56.485 130.586 56.815C130.565 57.139 130.28 57.46 129.729 57.778C129.261 58.06 128.705 58.237 128.061 58.309C127.416 58.381 126.741 58.339 126.034 58.183C125.328 58.027 124.642 57.757 123.977 57.373Z" fill="white"/>
</g>
<rect x="-2.98023e-08" y="0.5" width="93.2283" height="43.0468" rx="7.5" transform="matrix(0.866025 0.5 -0.866025 0.5 81.3539 4.25)" stroke="url(#paint22_linear_380_5849)"/>
<defs>
<filter id="filter0_bd_380_5849" x="-6.66797" y="43.6475" width="689.373" height="428.029" filterUnits="userSpaceOnUse" colorInterpolationFilters="sRGB">
<feFlood floodOpacity="0" result="BackgroundImageFix"/>
<feGaussianBlur in="BackgroundImageFix" stdDeviation="10"/>
<feComposite in2="SourceAlpha" operator="in" result="effect1_backgroundBlur_380_5849"/>
<feColorMatrix in="SourceAlpha" type="matrix" values="0 0 0 0 0 0 0 0 0 0 0 0 0 0 0 0 0 0 127 0" result="hardAlpha"/>
<feOffset dx="-5" dy="16"/>
<feGaussianBlur stdDeviation="10"/>
<feComposite in2="hardAlpha" operator="out"/>
<feColorMatrix type="matrix" values="0 0 0 0 0 0 0 0 0 0 0 0 0 0 0 0 0 0 0.2 0"/>
<feBlend mode="normal" in2="effect1_backgroundBlur_380_5849" result="effect2_dropShadow_380_5849"/>
<feBlend mode="normal" in="SourceGraphic" in2="effect2_dropShadow_380_5849" result="shape"/>
</filter>
<filter id="filter1_bd_380_5849" x="-6.66797" y="-15.5908" width="689.373" height="428.029" filterUnits="userSpaceOnUse" colorInterpolationFilters="sRGB">
<feFlood floodOpacity="0" result="BackgroundImageFix"/>
<feGaussianBlur in="BackgroundImageFix" stdDeviation="10"/>
<feComposite in2="SourceAlpha" operator="in" result="effect1_backgroundBlur_380_5849"/>
<feColorMatrix in="SourceAlpha" type="matrix" values="0 0 0 0 0 0 0 0 0 0 0 0 0 0 0 0 0 0 127 0" result="hardAlpha"/>
<feOffset dx="-5" dy="16"/>
<feGaussianBlur stdDeviation="10"/>
<feComposite in2="hardAlpha" operator="out"/>
<feColorMatrix type="matrix" values="0 0 0 0 0 0 0 0 0 0 0 0 0 0 0 0 0 0 0.2 0"/>
<feBlend mode="normal" in2="effect1_backgroundBlur_380_5849" result="effect2_dropShadow_380_5849"/>
<feBlend mode="normal" in="SourceGraphic" in2="effect2_dropShadow_380_5849" result="shape"/>
</filter>
<filter id="filter2_d_380_5849" x="278.915" y="33.1221" width="87.2432" height="67.2754" filterUnits="userSpaceOnUse" colorInterpolationFilters="sRGB">
<feFlood floodOpacity="0" result="BackgroundImageFix"/>
<feColorMatrix in="SourceAlpha" type="matrix" values="0 0 0 0 0 0 0 0 0 0 0 0 0 0 0 0 0 0 127 0" result="hardAlpha"/>
<feOffset dx="-5" dy="16"/>
<feGaussianBlur stdDeviation="10"/>
<feComposite in2="hardAlpha" operator="out"/>
<feColorMatrix type="matrix" values="0 0 0 0 0 0 0 0 0 0 0 0 0 0 0 0 0 0 0.2 0"/>
<feBlend mode="normal" in2="BackgroundImageFix" result="effect1_dropShadow_380_5849"/>
<feBlend mode="normal" in="SourceGraphic" in2="effect1_dropShadow_380_5849" result="shape"/>
</filter>
<filter id="filter3_bd_380_5849" x="5.33203" y="81.2617" width="219.938" height="157" filterUnits="userSpaceOnUse" colorInterpolationFilters="sRGB">
<feFlood floodOpacity="0" result="BackgroundImageFix"/>
<feGaussianBlur in="BackgroundImageFix" stdDeviation="10"/>
<feComposite in2="SourceAlpha" operator="in" result="effect1_backgroundBlur_380_5849"/>
<feColorMatrix in="SourceAlpha" type="matrix" values="0 0 0 0 0 0 0 0 0 0 0 0 0 0 0 0 0 0 127 0" result="hardAlpha"/>
<feOffset dx="-5" dy="16"/>
<feGaussianBlur stdDeviation="10"/>
<feComposite in2="hardAlpha" operator="out"/>
<feColorMatrix type="matrix" values="0 0 0 0 0 0 0 0 0 0 0 0 0 0 0 0 0 0 0.2 0"/>
<feBlend mode="normal" in2="effect1_backgroundBlur_380_5849" result="effect2_dropShadow_380_5849"/>
<feBlend mode="normal" in="SourceGraphic" in2="effect2_dropShadow_380_5849" result="shape"/>
</filter>
<filter id="filter4_bd_380_5849" x="115.332" y="145.409" width="219.938" height="157" filterUnits="userSpaceOnUse" colorInterpolationFilters="sRGB">
<feFlood floodOpacity="0" result="BackgroundImageFix"/>
<feGaussianBlur in="BackgroundImageFix" stdDeviation="10"/>
<feComposite in2="SourceAlpha" operator="in" result="effect1_backgroundBlur_380_5849"/>
<feColorMatrix in="SourceAlpha" type="matrix" values="0 0 0 0 0 0 0 0 0 0 0 0 0 0 0 0 0 0 127 0" result="hardAlpha"/>
<feOffset dx="-5" dy="16"/>
<feGaussianBlur stdDeviation="10"/>
<feComposite in2="hardAlpha" operator="out"/>
<feColorMatrix type="matrix" values="0 0 0 0 0 0 0 0 0 0 0 0 0 0 0 0 0 0 0.2 0"/>
<feBlend mode="normal" in2="effect1_backgroundBlur_380_5849" result="effect2_dropShadow_380_5849"/>
<feBlend mode="normal" in="SourceGraphic" in2="effect2_dropShadow_380_5849" result="shape"/>
</filter>
<filter id="filter5_bd_380_5849" x="228.05" y="206.012" width="219.938" height="157" filterUnits="userSpaceOnUse" colorInterpolationFilters="sRGB">
<feFlood floodOpacity="0" result="BackgroundImageFix"/>
<feGaussianBlur in="BackgroundImageFix" stdDeviation="10"/>
<feComposite in2="SourceAlpha" operator="in" result="effect1_backgroundBlur_380_5849"/>
<feColorMatrix in="SourceAlpha" type="matrix" values="0 0 0 0 0 0 0 0 0 0 0 0 0 0 0 0 0 0 127 0" result="hardAlpha"/>
<feOffset dx="-5" dy="16"/>
<feGaussianBlur stdDeviation="10"/>
<feComposite in2="hardAlpha" operator="out"/>
<feColorMatrix type="matrix" values="0 0 0 0 0 0 0 0 0 0 0 0 0 0 0 0 0 0 0.2 0"/>
<feBlend mode="normal" in2="effect1_backgroundBlur_380_5849" result="effect2_dropShadow_380_5849"/>
<feBlend mode="normal" in="SourceGraphic" in2="effect2_dropShadow_380_5849" result="shape"/>
</filter>
<linearGradient id="paint0_linear_380_5849" x1="8.3997" y1="5.60841e-05" x2="388.433" y2="75.1243" gradientUnits="userSpaceOnUse">
<stop offset="0.0229588" stopColor="#17171F"/>
<stop offset="0.505208" stopColor="#38384D"/>
<stop offset="0.979167" stopColor="#17171F"/>
</linearGradient>
<linearGradient id="paint1_linear_380_5849" x1="8.3997" y1="5.60841e-05" x2="388.433" y2="75.1243" gradientUnits="userSpaceOnUse">
<stop offset="0.0229588" stopColor="#17171F"/>
<stop offset="0.505208" stopColor="#38384D"/>
<stop offset="0.979167" stopColor="#17171F"/>
</linearGradient>
<linearGradient id="paint2_linear_380_5849" x1="0.12521" y1="7.93594e-07" x2="5.76689" y2="1.17486" gradientUnits="userSpaceOnUse">
<stop offset="0.0229588" stopColor="#17171F"/>
<stop offset="0.505208" stopColor="#38384D"/>
<stop offset="0.979167" stopColor="#17171F"/>
</linearGradient>
<linearGradient id="paint3_linear_380_5849" x1="0.12521" y1="7.93594e-07" x2="5.76689" y2="1.17486" gradientUnits="userSpaceOnUse">
<stop offset="0.0229588" stopColor="#17171F"/>
<stop offset="0.505208" stopColor="#38384D"/>
<stop offset="0.979167" stopColor="#17171F"/>
</linearGradient>
<linearGradient id="paint4_linear_380_5849" x1="0.12521" y1="7.93594e-07" x2="5.76689" y2="1.17486" gradientUnits="userSpaceOnUse">
<stop offset="0.0229588" stopColor="#17171F"/>
<stop offset="0.505208" stopColor="#38384D"/>
<stop offset="0.979167" stopColor="#17171F"/>
</linearGradient>
<linearGradient id="paint5_linear_380_5849" x1="356.181" y1="8.60903" x2="329.885" y2="99.4713" gradientUnits="userSpaceOnUse">
<stop offset="0.0229588" stopColor="#17171F"/>
<stop offset="0.505208" stopColor="#38384D"/>
<stop offset="0.979167" stopColor="#17171F"/>
</linearGradient>
<linearGradient id="paint6_linear_380_5849" x1="6.34299" y1="2.68216e-06" x2="34.1003" y2="86.6407" gradientUnits="userSpaceOnUse">
<stop offset="0.0229588" stopColor="#17171F"/>
<stop offset="0.505208" stopColor="#38384D"/>
<stop offset="0.979167" stopColor="#17171F"/>
</linearGradient>
<linearGradient id="paint7_linear_380_5849" x1="3.5331" y1="8.02757e-07" x2="8.3135" y2="27.7697" gradientUnits="userSpaceOnUse">
<stop offset="0.0229588" stopColor="#17171F"/>
<stop offset="0.505208" stopColor="#38384D"/>
<stop offset="0.979167" stopColor="#17171F"/>
</linearGradient>
<linearGradient id="paint8_linear_380_5849" x1="4.3136" y1="8.02757e-07" x2="8.26649" y2="28.0353" gradientUnits="userSpaceOnUse">
<stop offset="0.0229588" stopColor="#17171F"/>
<stop offset="0.505208" stopColor="#38384D"/>
<stop offset="0.979167" stopColor="#17171F"/>
</linearGradient>
<linearGradient id="paint9_linear_380_5849" x1="0.897485" y1="5.61756e-06" x2="41.2935" y2="8.5183" gradientUnits="userSpaceOnUse">
<stop offset="0.0229588" stopColor="#17171F"/>
<stop offset="0.505208" stopColor="#38384D"/>
<stop offset="0.979167" stopColor="#17171F"/>
</linearGradient>
<linearGradient id="paint10_linear_380_5849" x1="4.52201" y1="2.68216e-06" x2="40.2401" y2="79.4823" gradientUnits="userSpaceOnUse">
<stop offset="0.0229588" stopColor="#17171F"/>
<stop offset="0.505208" stopColor="#38384D"/>
<stop offset="0.979167" stopColor="#17171F"/>
</linearGradient>
<linearGradient id="paint11_linear_380_5849" x1="2.34134" y1="1.48396e-05" x2="107.837" y2="21.9689" gradientUnits="userSpaceOnUse">
<stop offset="0.0229588" stopColor="#17171F"/>
<stop offset="0.505208" stopColor="#38384D"/>
<stop offset="0.979167" stopColor="#17171F"/>
</linearGradient>
<linearGradient id="paint12_linear_380_5849" x1="2.34134" y1="1.48396e-05" x2="107.837" y2="21.9689" gradientUnits="userSpaceOnUse">
<stop offset="0.0229588" stopColor="#17171F"/>
<stop offset="0.505208" stopColor="#38384D"/>
<stop offset="0.979167" stopColor="#17171F"/>
</linearGradient>
<linearGradient id="paint13_linear_380_5849" x1="2.34134" y1="1.48396e-05" x2="107.837" y2="21.9689" gradientUnits="userSpaceOnUse">
<stop offset="0.0229588" stopColor="#17171F"/>
<stop offset="0.505208" stopColor="#38384D"/>
<stop offset="0.979167" stopColor="#17171F"/>
</linearGradient>
<linearGradient id="paint14_linear_380_5849" x1="2.16909" y1="6.47166e-06" x2="87.4516" y2="37.7273" gradientUnits="userSpaceOnUse">
<stop offset="0.0229588" stopColor="#17171F"/>
<stop offset="0.505208" stopColor="#38384D"/>
<stop offset="0.979167" stopColor="#17171F"/>
</linearGradient>
<linearGradient id="paint15_linear_380_5849" x1="2.18436" y1="6.47166e-06" x2="87.8692" y2="38.1722" gradientUnits="userSpaceOnUse">
<stop offset="0.0229588" stopColor="#17171F"/>
<stop offset="0.505208" stopColor="#38384D"/>
<stop offset="0.979167" stopColor="#17171F"/>
</linearGradient>
<linearGradient id="paint16_linear_380_5849" x1="561.447" y1="244.296" x2="719.893" y2="279.608" gradientUnits="userSpaceOnUse">
<stop offset="0.0229588" stopColor="#17171F"/>
<stop offset="0.505208" stopColor="#38384D"/>
<stop offset="0.979167" stopColor="#17171F"/>
</linearGradient>
<linearGradient id="paint17_linear_380_5849" x1="514.793" y1="58" x2="673.238" y2="93.312" gradientUnits="userSpaceOnUse">
<stop offset="0.0229588" stopColor="#17171F"/>
<stop offset="0.505208" stopColor="#38384D"/>
<stop offset="0.979167" stopColor="#17171F"/>
</linearGradient>
<linearGradient id="paint18_linear_380_5849" x1="2.16909" y1="6.47166e-06" x2="87.4516" y2="37.7273" gradientUnits="userSpaceOnUse">
<stop offset="0.0229588" stopColor="#17171F"/>
<stop offset="0.505208" stopColor="#38384D"/>
<stop offset="0.979167" stopColor="#17171F"/>
</linearGradient>
<linearGradient id="paint19_linear_380_5849" x1="2.18436" y1="6.47166e-06" x2="87.8692" y2="38.1722" gradientUnits="userSpaceOnUse">
<stop offset="0.0229588" stopColor="#17171F"/>
<stop offset="0.505208" stopColor="#38384D"/>
<stop offset="0.979167" stopColor="#17171F"/>
</linearGradient>
<linearGradient id="paint20_linear_380_5849" x1="63.5645" y1="53" x2="104.563" y2="91.8036" gradientUnits="userSpaceOnUse">
<stop offset="0.0229588" stopColor="#17171F"/>
<stop offset="0.434523" stopColor="#38384D"/>
<stop offset="1" stopColor="#38384D"/>
</linearGradient>
<linearGradient id="paint21_linear_380_5849" x1="2.16909" y1="6.47166e-06" x2="87.4516" y2="37.7273" gradientUnits="userSpaceOnUse">
<stop offset="0.0229588" stopColor="#17171F"/>
<stop offset="0.505208" stopColor="#38384D"/>
<stop offset="0.979167" stopColor="#17171F"/>
</linearGradient>
<linearGradient id="paint22_linear_380_5849" x1="2.18436" y1="6.47166e-06" x2="87.8692" y2="38.1722" gradientUnits="userSpaceOnUse">
<stop offset="0.0229588" stopColor="#17171F"/>
<stop offset="0.505208" stopColor="#38384D"/>
<stop offset="0.979167" stopColor="#17171F"/>
</linearGradient>
<clipPath id="clip0_380_5849">
<path d="M342.986 7.82752C346.255 5.93963 351.557 5.93962 354.827 7.82752L656.785 182.163C660.055 184.051 660.055 187.112 656.785 189L640.996 198.115L327.197 16.9431L342.986 7.82752Z" fill="white"/>
</clipPath>
<clipPath id="clip1_380_5849">
<rect width="101" height="101" rx="12" transform="matrix(0.866025 0.5 -0.866025 0.5 117.801 101.262)" fill="white"/>
</clipPath>
<clipPath id="clip2_380_5849">
<rect width="52.3288" height="48" fill="white" transform="matrix(0.866025 0.5 -0.866025 0.5 114.051 125.597)"/>
</clipPath>
<clipPath id="clip3_380_5849">
<rect width="101" height="101" rx="12" transform="matrix(0.866025 0.5 -0.866025 0.5 227.801 165.409)" fill="white"/>
</clipPath>
<clipPath id="clip4_380_5849">
<rect width="52.3288" height="48" fill="white" transform="matrix(0.866025 0.5 -0.866025 0.5 224.051 189.744)"/>
</clipPath>
<clipPath id="clip5_380_5849">
<rect width="48" height="48" fill="white" transform="matrix(0.866025 0.5 -0.866025 0.5 340.569 253)"/>
</clipPath>
<clipPath id="clip6_380_5849">
<rect width="94.2283" height="44.0468" rx="8" transform="matrix(0.866025 0.5 -0.866025 0.5 712.478 226.012)" fill="white"/>
</clipPath>
<clipPath id="clip7_380_5849">
<rect width="94.2283" height="44.0468" rx="8" transform="matrix(0.866025 0.5 -0.866025 0.5 569.146 25)" fill="white"/>
</clipPath>
<clipPath id="clip8_380_5849">
<rect width="94.2283" height="44.0468" rx="8" transform="matrix(0.866025 0.5 -0.866025 0.5 80.9209 4)" fill="white"/>
</clipPath>
</defs>
</svg>
