<svg width="16" height="26" viewBox="0 0 16 26" fill="none" xmlns="http://www.w3.org/2000/svg">
<path fill-rule="evenodd" clip-rule="evenodd" d="M8.00022 1.89273L14.2659 8.15843L12.5458 9.87852L8.35379 5.68649L8.00024 5.33294L7.64669 5.68649L3.45464 9.87854L1.73453 8.15843L8.00022 1.89273ZM14.973 8.86553L13.2529 10.5856L15.3266 12.6593L15.6802 13.0129L15.6801 13.0129L15.6801 13.0129L14.973 13.72L13.2663 15.4267L15.3266 17.487L15.6802 17.8406L15.6799 17.8408L15.6801 17.841L14.973 18.5482L8.70733 24.8138L8.00022 25.521L7.29312 24.8138L1.02742 18.5482L0.320313 17.841L0.320561 17.8408L0.320329 17.8406L0.673883 17.487L2.73414 15.4267L1.02742 13.72L0.320313 13.0129L0.320355 13.0129L0.32033 13.0129L0.673883 12.6593L2.74753 10.5856L1.02742 8.86553L0.320312 8.15843L1.02742 7.45132L7.29312 1.18562L8.00022 0.478516L8.00023 0.478524L8.00024 0.478516L8.35379 0.832069L8.70733 1.18562L14.973 7.45132L15.3266 7.80487L15.6801 8.15843L15.3266 8.51198L14.973 8.86553ZM5.16139 12.9995L3.44125 14.7196L1.73453 13.0129L3.45467 11.2928L5.16139 12.9995ZM10.132 12.2924L8.35379 10.5142L8.00024 10.1607L7.64669 10.5142L5.8685 12.2924L4.16177 10.5857L8.00022 6.74722L11.8387 10.5857L10.132 12.2924ZM12.5592 14.7196L10.8391 12.9995L12.5458 11.2928L14.2659 13.0129L12.5592 14.7196ZM5.86873 13.7068L4.14859 15.427L8.00022 19.2786L11.8519 15.427L10.1317 13.7068L8.70733 15.1312L8.35379 15.4848L8.00022 15.8383L7.64669 15.4848L7.29312 15.1312L5.86873 13.7068ZM8.00022 11.5753L6.57584 12.9997L8.00022 14.4241L9.42461 12.9997L8.00022 11.5753ZM7.29312 19.9857L3.44148 16.1341L1.73453 17.841L8.00022 24.1067L14.2659 17.841L12.559 16.1341L8.70733 19.9857L8.00022 20.6928L7.29312 19.9857Z" fill="#EBEBF5"/>
</svg>
